<?xml version="1.0" encoding="utf-8"?>
<!-- Generator: Moho 12.5 build 22438 -->
<!DOCTYPE svg PUBLIC "-//W3C//DTD SVG 1.1//EN" "http://www.w3.org/Graphics/SVG/1.1/DTD/svg11.dtd">
<svg version="1.1" id="Frame_0" xmlns="http://www.w3.org/2000/svg" xmlns:xlink="http://www.w3.org/1999/xlink" width="1920px" height="1080px">
<g id="Layer_8">
<path fill="#e0ba78" fill-rule="evenodd" stroke="none" d="M 1374.520 452.504 C 1374.551 454.943 1374.520 458.195 1374.520 460.635 C 1374.522 460.637 1387.063 476.540 1391.923 483.725 C 1396.903 491.090 1403.077 501.239 1407.240 509.095 C 1410.354 514.970 1414.106 523.025 1416.574 529.199 C 1419.331 536.093 1422.797 545.421 1424.472 552.654 C 1425.797 558.372 1426.794 566.179 1427.105 572.040 C 1427.365 576.937 1427.360 583.523 1426.681 588.379 C 1425.796 594.712 1423.676 603.075 1421.245 608.989 C 1418.802 614.935 1414.478 622.466 1410.562 627.564 C 1407.043 632.143 1401.301 637.378 1396.950 641.174 C 1394.847 643.010 1391.874 645.263 1389.589 646.869 C 1388.010 647.979 1385.798 649.299 1384.173 650.341 C 1384.173 650.342 1382.826 657.118 1382.205 660.014 C 1381.395 663.799 1380.406 668.872 1379.366 672.600 C 1378.636 675.221 1377.379 678.628 1376.527 681.212 C 1376.528 681.213 1383.112 692.782 1385.558 697.932 C 1387.551 702.128 1389.928 707.859 1391.500 712.230 C 1394.281 719.963 1397.559 730.454 1399.358 738.472 C 1401.098 746.227 1402.806 756.733 1403.343 764.662 C 1404.064 775.295 1404.209 789.643 1402.608 800.180 C 1401.164 809.678 1397.422 822.070 1393.810 830.973 C 1391.326 837.095 1387.172 844.933 1383.545 850.455 C 1378.557 858.051 1371.007 867.685 1364.415 873.940 C 1356.214 881.722 1343.250 889.703 1333.860 896.000 C 1322.108 903.880 1306.139 913.977 1293.761 920.831 C 1280.351 928.257 1261.940 937.210 1247.890 943.340 C 1234.796 949.052 1216.914 955.676 1203.444 960.434 C 1190.318 965.070 1172.688 970.928 1159.283 974.679 C 1148.702 977.641 1134.432 981.018 1123.669 983.227 C 1108.412 986.359 1087.923 989.870 1072.477 991.858 C 1059.110 993.579 1041.198 995.254 1027.737 995.902 C 1012.588 996.631 992.349 996.290 977.184 996.155 C 959.601 995.998 936.145 995.750 918.587 994.794 C 898.472 993.700 871.690 991.385 851.686 989.001 C 830.245 986.447 801.676 982.534 780.531 978.157 C 757.436 973.376 726.904 965.524 704.517 958.103 C 686.152 952.016 661.893 942.913 644.622 934.194 C 632.486 928.067 616.614 918.995 605.973 910.536 C 597.065 903.455 586.169 892.647 579.270 883.598 C 572.978 875.346 565.953 863.228 561.955 853.651 C 557.991 844.153 554.576 830.714 552.910 820.557 C 551.535 812.181 551.183 800.806 551.144 792.317 C 551.106 783.953 551.730 772.792 552.625 764.476 C 553.414 757.143 554.974 747.412 556.539 740.204 C 557.319 736.612 558.751 731.918 559.700 728.366 C 559.699 728.365 555.063 718.323 553.466 713.866 C 551.297 707.813 549.054 699.515 547.578 693.257 C 546.867 690.244 546.018 686.196 545.619 683.127 C 545.315 680.800 545.228 677.666 545.061 675.326 C 545.060 675.325 534.159 669.365 529.905 666.188 C 524.919 662.464 518.723 656.839 514.637 652.146 C 510.551 647.452 505.688 640.619 502.831 635.091 C 500.058 629.726 497.400 622.036 495.942 616.175 C 494.677 611.095 493.633 604.131 493.480 598.898 C 493.341 594.134 493.978 587.764 494.767 583.064 C 495.853 576.599 498.150 568.116 500.327 561.933 C 502.414 556.005 505.862 548.324 508.853 542.797 C 512.139 536.723 517.344 529.090 521.357 523.471 C 524.216 519.469 528.220 514.260 531.451 510.551 C 534.099 507.511 540.787 500.885 540.787 500.885 C 539.782 493.448 537.919 483.585 537.439 476.097 C 536.744 465.281 537.030 450.780 537.849 439.973 C 538.734 428.295 540.897 412.777 543.332 401.322 C 545.883 389.323 550.627 373.621 554.579 362.008 C 558.214 351.327 563.686 337.281 568.410 327.035 C 574.289 314.285 583.182 297.764 590.432 285.740 C 596.399 275.842 605.059 263.063 611.967 253.798 C 618.394 245.178 627.529 234.099 634.711 226.097 C 642.840 217.039 654.201 205.415 663.141 197.157 C 673.097 187.960 686.910 176.244 697.806 168.183 C 708.310 160.412 722.978 150.936 734.282 144.384 C 747.747 136.578 766.220 126.996 780.521 120.854 C 793.549 115.260 811.484 109.143 825.048 105.016 C 838.745 100.848 857.258 96.042 871.302 93.256 C 886.404 90.261 906.776 87.410 922.107 85.998 C 936.430 84.680 955.626 84.019 970.009 83.966 C 984.824 83.912 1004.609 84.351 1019.362 85.708 C 1038.366 87.457 1063.621 91.146 1082.251 95.285 C 1098.365 98.865 1119.539 105.110 1135.065 110.714 C 1147.367 115.155 1163.463 121.995 1175.121 127.923 C 1187.656 134.297 1203.866 143.848 1215.422 151.861 C 1231.301 162.872 1251.448 179.112 1265.458 192.420 C 1275.263 201.735 1287.393 215.170 1295.782 225.777 C 1306.225 238.981 1318.969 257.572 1327.349 272.173 C 1335.636 286.616 1345.077 306.806 1351.225 322.281 C 1356.635 335.897 1362.908 354.482 1366.280 368.740 C 1369.553 382.573 1372.178 401.421 1373.441 415.580 C 1374.425 426.618 1374.379 441.423 1374.520 452.504 Z"/>
<path fill="none" stroke="#c48450" stroke-width="10" stroke-linecap="round" stroke-linejoin="round" d="M 1374.520 460.635 C 1374.520 460.635 1374.520 460.635 1374.520 460.635 C 1374.520 458.195 1374.551 454.943 1374.520 452.504 C 1374.379 441.423 1374.425 426.618 1373.441 415.580 C 1372.178 401.421 1369.553 382.573 1366.280 368.740 C 1362.908 354.482 1356.635 335.897 1351.225 322.281 C 1345.077 306.806 1335.636 286.616 1327.349 272.173 C 1318.969 257.572 1306.225 238.981 1295.782 225.777 C 1287.393 215.170 1275.263 201.735 1265.458 192.420 C 1251.448 179.112 1231.301 162.872 1215.422 151.861 C 1203.866 143.848 1187.656 134.297 1175.121 127.923 C 1163.463 121.995 1147.367 115.155 1135.065 110.714 C 1119.539 105.110 1098.365 98.865 1082.251 95.285 C 1063.621 91.146 1038.366 87.457 1019.362 85.708 C 1004.609 84.351 984.824 83.912 970.009 83.966 C 955.626 84.019 936.430 84.680 922.107 85.998 C 906.776 87.410 886.404 90.261 871.302 93.256 C 857.258 96.042 838.745 100.848 825.048 105.016 C 811.484 109.143 793.549 115.260 780.521 120.854 C 766.220 126.996 747.747 136.578 734.282 144.384 C 722.978 150.936 708.310 160.412 697.806 168.183 C 686.910 176.244 673.097 187.960 663.141 197.157 C 654.201 205.415 642.840 217.039 634.711 226.097 C 627.529 234.099 618.394 245.178 611.967 253.798 C 605.059 263.063 596.399 275.842 590.432 285.740 C 583.182 297.764 574.289 314.285 568.410 327.035 C 563.686 337.281 558.214 351.327 554.579 362.008 C 550.627 373.621 545.883 389.323 543.332 401.322 C 540.897 412.777 538.734 428.295 537.849 439.973 C 537.030 450.780 536.744 465.281 537.439 476.097 C 537.919 483.585 539.782 493.448 540.787 500.885 C 540.787 500.885 534.099 507.511 531.451 510.551 C 528.220 514.260 524.216 519.469 521.357 523.471 C 517.344 529.090 512.139 536.723 508.853 542.797 C 505.862 548.324 502.414 556.005 500.327 561.933 C 498.150 568.116 495.853 576.599 494.767 583.064 C 493.978 587.764 493.341 594.134 493.480 598.898 C 493.633 604.131 494.677 611.095 495.942 616.175 C 497.400 622.036 500.058 629.726 502.831 635.091 C 505.688 640.619 510.551 647.452 514.637 652.146 C 518.723 656.839 524.919 662.464 529.905 666.188 C 534.159 669.365 545.060 675.325 545.061 675.326 C 545.061 675.326 545.061 675.326 545.061 675.326 C 545.228 677.666 545.315 680.800 545.619 683.127 C 546.018 686.196 546.867 690.244 547.578 693.257 C 549.054 699.515 551.297 707.813 553.466 713.866 C 555.063 718.323 559.699 728.365 559.700 728.366 C 559.700 728.366 559.700 728.366 559.700 728.366 C 558.751 731.918 557.319 736.612 556.539 740.204 C 554.974 747.412 553.414 757.143 552.625 764.476 C 551.730 772.792 551.106 783.953 551.144 792.317 C 551.183 800.806 551.535 812.181 552.910 820.557 C 554.576 830.714 557.991 844.153 561.955 853.651 C 565.953 863.228 572.978 875.346 579.270 883.598 C 586.169 892.647 597.065 903.455 605.973 910.536 C 616.614 918.995 632.486 928.067 644.622 934.194 C 661.893 942.913 686.152 952.016 704.517 958.103 C 726.904 965.524 757.436 973.376 780.531 978.157 C 801.676 982.534 830.245 986.447 851.686 989.001 C 871.690 991.385 898.472 993.700 918.587 994.794 C 936.145 995.750 959.601 995.998 977.184 996.155 C 992.349 996.290 1012.588 996.631 1027.737 995.902 C 1041.198 995.254 1059.110 993.579 1072.477 991.858 C 1087.923 989.870 1108.412 986.359 1123.669 983.227 C 1134.432 981.018 1148.702 977.641 1159.283 974.679 C 1172.688 970.928 1190.318 965.070 1203.444 960.434 C 1216.914 955.676 1234.796 949.052 1247.890 943.340 C 1261.940 937.210 1280.351 928.257 1293.761 920.831 C 1306.139 913.977 1322.108 903.880 1333.860 896.000 C 1343.250 889.703 1356.214 881.722 1364.415 873.940 C 1371.007 867.685 1378.557 858.051 1383.545 850.455 C 1387.172 844.933 1391.326 837.095 1393.810 830.973 C 1397.422 822.070 1401.164 809.678 1402.608 800.180 C 1404.209 789.643 1404.064 775.295 1403.343 764.662 C 1402.806 756.733 1401.098 746.227 1399.358 738.472 C 1397.559 730.454 1394.281 719.963 1391.500 712.230 C 1389.928 707.859 1387.551 702.128 1385.558 697.932 C 1383.112 692.782 1376.528 681.213 1376.527 681.212 C 1376.527 681.212 1376.527 681.212 1376.527 681.212 C 1377.379 678.628 1378.636 675.221 1379.366 672.600 C 1380.406 668.872 1381.395 663.799 1382.205 660.014 C 1382.826 657.118 1384.173 650.342 1384.173 650.341 C 1384.173 650.341 1384.173 650.341 1384.173 650.341 C 1385.798 649.299 1388.010 647.979 1389.589 646.869 C 1391.874 645.263 1394.847 643.010 1396.950 641.174 C 1401.301 637.378 1407.043 632.143 1410.562 627.564 C 1414.478 622.466 1418.802 614.935 1421.245 608.989 C 1423.676 603.075 1425.796 594.712 1426.681 588.379 C 1427.360 583.523 1427.365 576.937 1427.105 572.040 C 1426.794 566.179 1425.797 558.372 1424.472 552.654 C 1422.797 545.421 1419.331 536.093 1416.574 529.199 C 1414.106 523.025 1410.354 514.970 1407.240 509.095 C 1403.077 501.239 1396.903 491.090 1391.923 483.725 C 1387.063 476.540 1374.522 460.637 1374.520 460.635 "/>
<g id="Layer_7">
<clipPath id="1d3fc559-013a-4f24-8f6e-973a911f671a">
<path fill="#f39437" fill-rule="evenodd" stroke="none" d="M 1341.825 715.793 C 1336.601 705.278 1326.391 693.157 1319.776 683.456 C 1319.772 683.459 1289.806 710.885 1275.190 720.203 C 1241.185 741.881 1190.847 762.492 1152.699 775.569 C 1126.057 784.701 1089.371 793.626 1061.566 798.107 C 1017.745 805.169 958.343 809.243 913.965 808.360 C 880.984 807.703 837.061 802.816 804.600 796.942 C 775.472 791.672 737.198 781.485 709.056 772.305 C 692.990 767.065 671.551 759.672 656.574 751.845 C 647.792 747.256 637.001 739.514 628.953 733.733 C 623.215 729.612 615.958 723.591 610.389 719.244 C 607.811 729.352 603.533 742.651 601.796 752.936 C 599.518 766.433 597.544 784.740 598.142 798.415 C 598.605 809.019 600.283 823.331 603.827 833.336 C 607.197 842.850 613.735 855.059 620.475 862.572 C 631.351 874.696 650.774 885.762 665.142 893.433 C 686.371 904.767 716.898 915.538 740.020 922.213 C 769.213 930.640 809.377 937.185 839.462 941.444 C 867.025 945.347 904.061 948.616 931.869 949.888 C 959.222 951.138 995.821 951.789 1023.138 949.926 C 1051.004 948.026 1088.046 943.019 1115.368 937.224 C 1137.787 932.470 1167.154 923.706 1188.820 916.238 C 1208.547 909.438 1234.612 899.439 1253.293 890.144 C 1272.342 880.665 1296.962 866.265 1314.155 853.731 C 1323.737 846.746 1337.653 837.889 1344.107 827.941 C 1350.789 817.640 1354.462 800.917 1355.770 788.708 C 1357.087 776.414 1355.159 759.720 1352.649 747.613 C 1350.602 737.740 1346.311 724.823 1341.825 715.793 M 610.389 719.244 C 610.389 719.244 610.389 719.244 610.389 719.244 Z"/>
</clipPath>
<path fill="#f39437" fill-rule="evenodd" stroke="none" d="M 1341.825 715.793 C 1336.601 705.278 1326.391 693.157 1319.776 683.456 C 1319.772 683.459 1289.806 710.885 1275.190 720.203 C 1241.185 741.881 1190.847 762.492 1152.699 775.569 C 1126.057 784.701 1089.371 793.626 1061.566 798.107 C 1017.745 805.169 958.343 809.243 913.965 808.360 C 880.984 807.703 837.061 802.816 804.600 796.942 C 775.472 791.672 737.198 781.485 709.056 772.305 C 692.990 767.065 671.551 759.672 656.574 751.845 C 647.792 747.256 637.001 739.514 628.953 733.733 C 623.215 729.612 615.958 723.591 610.389 719.244 C 607.811 729.352 603.533 742.651 601.796 752.936 C 599.518 766.433 597.544 784.740 598.142 798.415 C 598.605 809.019 600.283 823.331 603.827 833.336 C 607.197 842.850 613.735 855.059 620.475 862.572 C 631.351 874.696 650.774 885.762 665.142 893.433 C 686.371 904.767 716.898 915.538 740.020 922.213 C 769.213 930.640 809.377 937.185 839.462 941.444 C 867.025 945.347 904.061 948.616 931.869 949.888 C 959.222 951.138 995.821 951.789 1023.138 949.926 C 1051.004 948.026 1088.046 943.019 1115.368 937.224 C 1137.787 932.470 1167.154 923.706 1188.820 916.238 C 1208.547 909.438 1234.612 899.439 1253.293 890.144 C 1272.342 880.665 1296.962 866.265 1314.155 853.731 C 1323.737 846.746 1337.653 837.889 1344.107 827.941 C 1350.789 817.640 1354.462 800.917 1355.770 788.708 C 1357.087 776.414 1355.159 759.720 1352.649 747.613 C 1350.602 737.740 1346.311 724.823 1341.825 715.793 M 610.389 719.244 C 610.389 719.244 610.389 719.244 610.389 719.244 Z"/>
<path fill="none" stroke="#67370d" stroke-width="10" stroke-linecap="round" stroke-linejoin="round" d="M 1319.776 683.456 C 1319.776 683.456 1319.776 683.456 1319.776 683.456 C 1326.391 693.157 1336.601 705.278 1341.825 715.793 C 1346.311 724.823 1350.602 737.740 1352.649 747.613 C 1355.159 759.720 1357.087 776.414 1355.770 788.708 C 1354.462 800.917 1350.789 817.640 1344.107 827.941 C 1337.653 837.889 1323.737 846.746 1314.155 853.731 C 1296.962 866.265 1272.342 880.665 1253.293 890.144 C 1234.612 899.439 1208.547 909.438 1188.820 916.238 C 1167.154 923.706 1137.787 932.470 1115.368 937.224 C 1088.046 943.019 1051.004 948.026 1023.138 949.926 C 995.821 951.789 959.222 951.138 931.869 949.888 C 904.061 948.616 867.025 945.347 839.462 941.444 C 809.377 937.185 769.213 930.640 740.020 922.213 C 716.898 915.538 686.371 904.767 665.142 893.433 C 650.774 885.762 631.351 874.696 620.475 862.572 C 613.735 855.059 607.197 842.850 603.827 833.336 C 600.283 823.331 598.605 809.019 598.142 798.415 C 597.544 784.740 599.518 766.433 601.796 752.936 C 603.533 742.651 607.811 729.352 610.389 719.244 C 610.389 719.244 610.389 719.244 610.389 719.244 C 615.958 723.591 623.215 729.612 628.953 733.733 C 637.001 739.514 647.792 747.256 656.574 751.845 C 671.551 759.672 692.990 767.065 709.056 772.305 C 737.198 781.485 775.472 791.672 804.600 796.942 C 837.061 802.816 880.984 807.703 913.965 808.360 C 958.343 809.243 1017.745 805.169 1061.566 798.107 C 1089.371 793.626 1126.057 784.701 1152.699 775.569 C 1190.847 762.492 1241.185 741.881 1275.190 720.203 C 1289.806 710.885 1319.772 683.459 1319.776 683.456 "/>
<path fill="#f7a846" fill-rule="evenodd" stroke="none" d="M 1353.904 812.943 C 1355.731 812.109 1358.135 810.928 1359.949 810.064 C 1359.949 810.062 1363.323 790.704 1363.555 782.311 C 1363.875 770.761 1363.136 755.160 1360.453 743.921 C 1357.413 731.188 1350.415 714.879 1343.779 703.593 C 1338.474 694.571 1328.711 684.374 1322.253 676.137 C 1322.250 676.141 1301.605 706.918 1289.819 717.336 C 1266.126 738.280 1227.288 757.048 1198.217 769.493 C 1165.057 783.687 1118.330 796.673 1082.947 803.679 C 1046.825 810.831 997.650 815.061 960.845 816.207 C 921.484 817.432 868.648 816.563 829.687 810.832 C 816.657 808.915 799.779 803.764 786.962 800.735 C 790.763 807.080 795.159 815.993 799.631 821.884 C 804.422 828.193 811.955 835.702 817.834 841.011 C 826.310 848.667 838.550 857.836 848.068 864.150 C 857.568 870.451 870.834 877.969 881.079 882.969 C 888.994 886.832 899.883 891.311 908.198 894.215 C 917.588 897.494 930.390 901.064 940.082 903.296 C 948.113 905.146 958.951 907.070 967.123 908.139 C 976.699 909.393 989.554 910.497 999.209 910.763 C 1010.641 911.077 1025.906 910.482 1037.314 909.680 C 1052.272 908.628 1072.180 906.443 1086.971 903.978 C 1099.851 901.832 1116.865 898.009 1129.500 894.712 C 1146.056 890.391 1167.742 883.231 1184.018 877.950 C 1204.342 871.357 1231.338 862.229 1251.402 854.882 C 1263.965 850.282 1280.565 843.743 1292.974 838.743 C 1303.484 834.508 1317.401 828.625 1327.831 824.196 C 1335.672 820.866 1346.154 816.482 1353.904 812.943 M 786.962 800.735 C 786.962 800.735 786.962 800.735 786.962 800.735 Z" clip-path="url(#1d3fc559-013a-4f24-8f6e-973a911f671a)"/>
<path fill="none" stroke="#67370d" stroke-width="10" stroke-opacity="0.000000" stroke-linecap="round" stroke-linejoin="round" d="M 1359.949 810.064 C 1359.949 810.064 1359.949 810.064 1359.949 810.064 C 1358.135 810.928 1355.731 812.109 1353.904 812.943 C 1346.154 816.482 1335.672 820.866 1327.831 824.196 C 1317.401 828.625 1303.484 834.508 1292.974 838.743 C 1280.565 843.743 1263.965 850.282 1251.402 854.882 C 1231.338 862.229 1204.342 871.357 1184.018 877.950 C 1167.742 883.231 1146.056 890.391 1129.500 894.712 C 1116.865 898.009 1099.851 901.832 1086.971 903.978 C 1072.180 906.443 1052.272 908.628 1037.314 909.680 C 1025.906 910.482 1010.641 911.077 999.209 910.763 C 989.554 910.497 976.699 909.393 967.123 908.139 C 958.951 907.070 948.113 905.146 940.082 903.296 C 930.390 901.064 917.588 897.494 908.198 894.215 C 899.883 891.311 888.994 886.832 881.079 882.969 C 870.834 877.969 857.568 870.451 848.068 864.150 C 838.550 857.836 826.310 848.667 817.834 841.011 C 811.955 835.702 804.422 828.193 799.631 821.884 C 795.159 815.993 790.763 807.080 786.962 800.735 C 786.962 800.735 786.962 800.735 786.962 800.735 C 799.779 803.764 816.657 808.915 829.687 810.832 C 868.648 816.563 921.484 817.432 960.845 816.207 C 997.650 815.061 1046.825 810.831 1082.947 803.679 C 1118.330 796.673 1165.057 783.687 1198.217 769.493 C 1227.288 757.048 1266.126 738.280 1289.819 717.336 C 1301.605 706.918 1322.250 676.141 1322.253 676.137 C 1322.253 676.137 1322.253 676.137 1322.253 676.137 C 1328.711 684.374 1338.474 694.571 1343.779 703.593 C 1350.415 714.879 1357.413 731.188 1360.453 743.921 C 1363.136 755.160 1363.875 770.761 1363.555 782.311 C 1363.323 790.704 1359.949 810.062 1359.949 810.064 " clip-path="url(#1d3fc559-013a-4f24-8f6e-973a911f671a)"/>
<path fill="#f39437" fill-rule="evenodd" fill-opacity="0.000000" stroke="none" d="M 1341.825 715.793 C 1336.601 705.278 1326.391 693.157 1319.777 683.456 C 1319.772 683.460 1289.806 710.885 1275.190 720.203 C 1241.185 741.881 1190.847 762.492 1152.699 775.569 C 1126.057 784.702 1089.371 793.626 1061.566 798.107 C 1017.744 805.169 958.343 809.243 913.965 808.360 C 880.984 807.703 837.061 802.815 804.600 796.942 C 775.472 791.672 737.198 781.485 709.056 772.305 C 692.990 767.065 671.551 759.672 656.574 751.845 C 647.792 747.256 637.001 739.515 628.953 733.734 C 623.215 729.612 615.958 723.591 610.389 719.244 C 607.811 729.352 603.533 742.651 601.796 752.937 C 599.518 766.433 597.544 784.740 598.142 798.415 C 598.605 809.019 600.283 823.331 603.827 833.336 C 607.197 842.850 613.735 855.059 620.475 862.572 C 631.351 874.696 650.774 885.762 665.142 893.433 C 686.371 904.767 716.898 915.538 740.020 922.213 C 769.213 930.640 809.377 937.185 839.462 941.444 C 867.025 945.346 904.061 948.616 931.869 949.888 C 959.221 951.138 995.821 951.789 1023.138 949.926 C 1051.004 948.026 1088.045 943.018 1115.368 937.224 C 1137.787 932.470 1167.154 923.706 1188.820 916.238 C 1208.547 909.438 1234.612 899.440 1253.293 890.144 C 1272.343 880.666 1296.962 866.265 1314.155 853.731 C 1323.737 846.746 1337.653 837.889 1344.106 827.941 C 1350.789 817.640 1354.462 800.917 1355.770 788.708 C 1357.087 776.414 1355.158 759.720 1352.649 747.613 C 1350.602 737.740 1346.311 724.823 1341.825 715.793 M 610.389 719.244 C 610.389 719.244 610.389 719.244 610.389 719.244 Z" clip-path="url(#1d3fc559-013a-4f24-8f6e-973a911f671a)"/>
<path fill="none" stroke="#67370d" stroke-width="10" stroke-linecap="round" stroke-linejoin="round" d="M 1319.777 683.456 C 1319.777 683.456 1319.777 683.456 1319.777 683.456 C 1326.391 693.157 1336.601 705.278 1341.825 715.793 C 1346.311 724.823 1350.602 737.740 1352.649 747.613 C 1355.158 759.720 1357.087 776.414 1355.770 788.708 C 1354.462 800.917 1350.789 817.640 1344.106 827.941 C 1337.653 837.889 1323.737 846.746 1314.155 853.731 C 1296.962 866.265 1272.343 880.666 1253.293 890.144 C 1234.612 899.440 1208.547 909.438 1188.820 916.238 C 1167.154 923.706 1137.787 932.470 1115.368 937.224 C 1088.045 943.018 1051.004 948.026 1023.138 949.926 C 995.821 951.789 959.221 951.138 931.869 949.888 C 904.061 948.616 867.025 945.346 839.462 941.444 C 809.377 937.185 769.213 930.640 740.020 922.213 C 716.898 915.538 686.371 904.767 665.142 893.433 C 650.774 885.762 631.351 874.696 620.475 862.572 C 613.735 855.059 607.197 842.850 603.827 833.336 C 600.283 823.331 598.605 809.019 598.142 798.415 C 597.544 784.740 599.518 766.433 601.796 752.937 C 603.533 742.651 607.811 729.352 610.389 719.244 C 610.389 719.244 610.389 719.244 610.389 719.244 C 615.958 723.591 623.215 729.612 628.953 733.734 C 637.001 739.515 647.792 747.256 656.574 751.845 C 671.551 759.672 692.990 767.065 709.056 772.305 C 737.198 781.485 775.472 791.672 804.600 796.942 C 837.061 802.815 880.984 807.703 913.965 808.360 C 958.343 809.243 1017.744 805.169 1061.566 798.107 C 1089.371 793.626 1126.057 784.702 1152.699 775.569 C 1190.847 762.492 1241.185 741.881 1275.190 720.203 C 1289.806 710.885 1319.772 683.460 1319.777 683.456 " clip-path="url(#1d3fc559-013a-4f24-8f6e-973a911f671a)"/>
</g>
<g id="Layer_6">
<clipPath id="ba780acb-6f87-44ab-87b1-3efcf8a83b50">
<path fill="#b6671c" fill-rule="evenodd" stroke="none" d="M 1339.458 628.372 C 1340.747 616.884 1339.458 601.399 1339.458 589.839 C 1339.451 589.837 1290.916 568.782 1269.054 570.336 C 1237.603 572.571 1202.843 602.457 1173.910 614.987 C 1137.133 630.915 1088.729 655.050 1049.706 664.185 C 1009.286 673.646 953.304 675.214 911.792 675.476 C 875.661 675.704 827.067 674.423 791.621 667.411 C 748.953 658.970 697.258 627.988 654.387 620.640 C 635.185 617.348 608.954 619.109 589.482 618.452 C 589.493 632.680 587.394 651.809 589.517 665.878 C 592.419 685.104 598.449 711.425 609.191 727.632 C 619.016 742.455 638.782 757.240 654.005 766.434 C 685.790 785.631 734.361 799.604 770.409 808.515 C 812.728 818.975 870.843 826.451 914.408 827.981 C 957.333 829.490 1014.766 824.905 1057.288 818.848 C 1083.994 815.044 1119.320 807.549 1145.188 799.898 C 1169.126 792.817 1200.438 781.103 1223.016 770.454 C 1237.652 763.551 1256.753 753.253 1270.005 743.967 C 1281.529 735.893 1296.716 724.365 1305.683 713.522 C 1314.888 702.391 1324.238 685.124 1329.469 671.660 C 1334.295 659.237 1337.971 641.616 1339.458 628.372 M 589.482 618.452 C 589.482 618.452 589.482 618.452 589.482 618.452 Z"/>
</clipPath>
<path fill="#b6671c" fill-rule="evenodd" stroke="none" d="M 1339.458 628.372 C 1340.747 616.884 1339.458 601.399 1339.458 589.839 C 1339.451 589.837 1290.916 568.782 1269.054 570.336 C 1237.603 572.571 1202.843 602.457 1173.910 614.987 C 1137.133 630.915 1088.729 655.050 1049.706 664.185 C 1009.286 673.646 953.304 675.214 911.792 675.476 C 875.661 675.704 827.067 674.423 791.621 667.411 C 748.953 658.970 697.258 627.988 654.387 620.640 C 635.185 617.348 608.954 619.109 589.482 618.452 C 589.493 632.680 587.394 651.809 589.517 665.878 C 592.419 685.104 598.449 711.425 609.191 727.632 C 619.016 742.455 638.782 757.240 654.005 766.434 C 685.790 785.631 734.361 799.604 770.409 808.515 C 812.728 818.975 870.843 826.451 914.408 827.981 C 957.333 829.490 1014.766 824.905 1057.288 818.848 C 1083.994 815.044 1119.320 807.549 1145.188 799.898 C 1169.126 792.817 1200.438 781.103 1223.016 770.454 C 1237.652 763.551 1256.753 753.253 1270.005 743.967 C 1281.529 735.893 1296.716 724.365 1305.683 713.522 C 1314.888 702.391 1324.238 685.124 1329.469 671.660 C 1334.295 659.237 1337.971 641.616 1339.458 628.372 M 589.482 618.452 C 589.482 618.452 589.482 618.452 589.482 618.452 Z"/>
<path fill="none" stroke="#67370d" stroke-width="10" stroke-linecap="round" stroke-linejoin="round" d="M 1339.458 589.839 C 1339.458 589.839 1339.458 589.839 1339.458 589.839 C 1339.458 601.399 1340.747 616.884 1339.458 628.372 C 1337.971 641.616 1334.295 659.237 1329.469 671.660 C 1324.238 685.124 1314.888 702.391 1305.683 713.522 C 1296.716 724.365 1281.529 735.893 1270.005 743.967 C 1256.753 753.253 1237.652 763.551 1223.016 770.454 C 1200.438 781.103 1169.126 792.817 1145.188 799.898 C 1119.320 807.549 1083.994 815.044 1057.288 818.848 C 1014.766 824.905 957.333 829.490 914.408 827.981 C 870.843 826.451 812.728 818.975 770.409 808.515 C 734.361 799.604 685.790 785.631 654.005 766.434 C 638.782 757.240 619.016 742.455 609.191 727.632 C 598.449 711.425 592.419 685.104 589.517 665.878 C 587.394 651.809 589.493 632.680 589.482 618.452 C 589.482 618.452 589.482 618.452 589.482 618.452 C 608.954 619.109 635.185 617.348 654.387 620.640 C 697.258 627.988 748.953 658.970 791.621 667.411 C 827.067 674.423 875.661 675.704 911.792 675.476 C 953.304 675.214 1009.286 673.646 1049.706 664.185 C 1088.729 655.050 1137.133 630.915 1173.910 614.987 C 1202.843 602.457 1237.603 572.571 1269.054 570.336 C 1290.916 568.782 1339.451 589.837 1339.458 589.839 "/>
<path fill="#8b4e13" fill-rule="evenodd" stroke="none" d="M 1306.412 631.179 C 1311.466 626.403 1317.865 619.687 1322.773 614.761 C 1322.770 614.760 1303.986 607.458 1296.047 604.056 C 1291.209 601.982 1284.865 598.974 1280.073 596.796 C 1280.069 596.800 1251.932 628.732 1237.961 640.360 C 1220.470 654.918 1194.397 670.856 1174.550 681.989 C 1154.380 693.301 1126.431 706.604 1104.846 714.904 C 1084.736 722.636 1057.280 731.708 1036.111 735.718 C 1019.357 738.892 996.529 740.643 979.477 740.559 C 953.628 740.430 919.113 736.788 893.768 731.705 C 862.725 725.479 822.526 711.860 792.846 700.835 C 764.215 690.199 727.032 673.387 699.642 659.872 C 684.920 652.608 665.982 641.588 651.556 633.752 C 651.553 633.752 629.728 640.818 620.092 642.656 C 609.543 644.669 595.158 645.149 584.473 646.218 C 584.473 646.223 586.967 682.926 591.596 697.866 C 596.853 714.832 607.260 736.797 618.311 750.702 C 623.204 756.859 632.042 762.876 637.927 768.093 C 641.300 762.896 645.023 755.372 649.172 750.771 C 653.678 745.772 660.820 740.065 666.662 736.725 C 673.804 732.644 684.272 728.638 692.368 727.185 C 700.428 725.738 711.528 726.255 719.664 727.185 C 733.898 728.813 752.243 734.721 766.041 738.580 C 780.327 742.577 799.004 749.152 813.212 753.420 C 828.698 758.073 849.319 764.432 865.033 768.248 C 878.256 771.458 896.090 774.877 909.495 777.218 C 921.264 779.274 936.986 782.012 948.887 783.069 C 963.745 784.388 983.680 784.874 998.589 784.412 C 1011.387 784.015 1028.479 782.803 1041.108 780.692 C 1055.620 778.265 1074.596 773.010 1088.675 768.733 C 1098.795 765.659 1112.100 760.921 1121.908 756.961 C 1132.814 752.558 1147.117 746.071 1157.576 740.692 C 1170.978 733.799 1188.379 723.682 1201.058 715.536 C 1215.325 706.370 1233.758 693.212 1247.104 682.751 C 1257.529 674.580 1270.642 662.722 1280.627 654.018 C 1288.416 647.228 1298.902 638.277 1306.412 631.179 M 637.927 768.093 C 637.927 768.093 637.927 768.093 637.927 768.093 Z" clip-path="url(#ba780acb-6f87-44ab-87b1-3efcf8a83b50)"/>
<path fill="none" stroke="#67370d" stroke-width="10" stroke-opacity="0.000000" stroke-linecap="round" stroke-linejoin="round" d="M 1322.773 614.761 C 1322.773 614.761 1322.773 614.761 1322.773 614.761 C 1317.865 619.687 1311.466 626.403 1306.412 631.179 C 1298.902 638.277 1288.416 647.228 1280.627 654.018 C 1270.642 662.722 1257.529 674.580 1247.104 682.751 C 1233.758 693.212 1215.325 706.370 1201.058 715.536 C 1188.379 723.682 1170.978 733.799 1157.576 740.692 C 1147.117 746.071 1132.814 752.558 1121.908 756.961 C 1112.100 760.921 1098.795 765.659 1088.675 768.733 C 1074.596 773.010 1055.620 778.265 1041.108 780.692 C 1028.479 782.803 1011.387 784.015 998.589 784.412 C 983.680 784.874 963.745 784.388 948.887 783.069 C 936.986 782.012 921.264 779.274 909.495 777.218 C 896.090 774.877 878.256 771.458 865.033 768.248 C 849.319 764.432 828.698 758.073 813.212 753.420 C 799.004 749.152 780.327 742.577 766.041 738.580 C 752.243 734.721 733.898 728.813 719.664 727.185 C 711.528 726.255 700.428 725.738 692.368 727.185 C 684.272 728.638 673.804 732.644 666.662 736.725 C 660.820 740.065 653.678 745.772 649.172 750.771 C 645.023 755.372 641.300 762.896 637.927 768.093 C 637.927 768.093 637.927 768.093 637.927 768.093 C 632.042 762.876 623.204 756.859 618.311 750.702 C 607.260 736.797 596.853 714.832 591.596 697.866 C 586.967 682.926 584.473 646.223 584.473 646.218 C 584.473 646.218 584.473 646.218 584.473 646.218 C 595.158 645.149 609.543 644.669 620.092 642.656 C 629.728 640.818 651.553 633.752 651.556 633.752 C 651.556 633.752 651.556 633.752 651.556 633.752 C 665.982 641.588 684.920 652.608 699.642 659.872 C 727.032 673.387 764.215 690.199 792.846 700.835 C 822.526 711.860 862.725 725.479 893.768 731.705 C 919.113 736.788 953.628 740.430 979.477 740.559 C 996.529 740.643 1019.357 738.892 1036.111 735.718 C 1057.280 731.708 1084.736 722.636 1104.846 714.904 C 1126.431 706.604 1154.380 693.301 1174.550 681.989 C 1194.397 670.856 1220.470 654.918 1237.961 640.360 C 1251.932 628.732 1280.069 596.800 1280.073 596.796 C 1280.073 596.796 1280.073 596.796 1280.073 596.796 C 1284.865 598.974 1291.209 601.982 1296.047 604.056 C 1303.986 607.458 1322.770 614.760 1322.773 614.761 " clip-path="url(#ba780acb-6f87-44ab-87b1-3efcf8a83b50)"/>
<path fill="#8b4e13" fill-rule="evenodd" stroke="none" d="M 739.531 753.848 C 744.345 752.243 751.827 753.332 755.091 757.224 C 758.282 761.030 752.452 766.819 749.021 767.491 C 742.489 768.769 729.396 771.225 724.112 766.006 C 716.946 758.929 735.814 753.788 739.531 753.848 Z" clip-path="url(#ba780acb-6f87-44ab-87b1-3efcf8a83b50)"/>
<path fill="#67370d" fill-opacity="0.000000" d="M 739.499 753.753 C 744.341 752.143 752.037 752.878 755.474 756.903 L 754.707 757.546 C 751.616 753.786 744.349 752.343 739.563 753.943 L 739.499 753.753 Z" clip-path="url(#ba780acb-6f87-44ab-87b1-3efcf8a83b50)"/>
<path fill="#67370d" fill-opacity="0.000000" d="M 755.474 756.903 C 758.764 761.163 752.738 767.230 749.117 767.981 L 748.925 767.000 C 752.166 766.409 757.800 760.897 754.707 757.546 L 755.474 756.903 Z" clip-path="url(#ba780acb-6f87-44ab-87b1-3efcf8a83b50)"/>
<path fill="#67370d" fill-opacity="0.000000" d="M 749.117 767.981 C 742.582 769.260 729.321 771.719 723.760 766.362 L 724.463 765.650 C 729.470 770.730 742.395 768.278 748.925 767.000 L 749.117 767.981 Z" clip-path="url(#ba780acb-6f87-44ab-87b1-3efcf8a83b50)"/>
<path fill="#67370d" fill-opacity="0.000000" d="M 723.760 766.362 C 716.585 758.583 735.792 753.690 739.533 753.748 L 739.529 753.948 C 735.836 753.885 717.307 759.274 724.463 765.650 L 723.760 766.362 Z" clip-path="url(#ba780acb-6f87-44ab-87b1-3efcf8a83b50)"/>
<path fill="#8b4e13" fill-rule="evenodd" stroke="none" d="M 842.069 789.870 C 845.489 789.870 848.422 792.200 851.866 790.416 C 862.144 785.092 843.670 777.845 839.684 777.823 C 833.247 777.788 823.418 783.623 832.501 789.948 C 834.292 791.195 839.753 789.560 842.069 789.870 Z" clip-path="url(#ba780acb-6f87-44ab-87b1-3efcf8a83b50)"/>
<path fill="#67370d" fill-opacity="0.000000" d="M 842.069 789.770 C 845.523 789.777 848.465 791.702 851.636 789.972 L 852.096 790.860 C 848.380 792.698 845.454 789.964 842.069 789.971 L 842.069 789.770 Z" clip-path="url(#ba780acb-6f87-44ab-87b1-3efcf8a83b50)"/>
<path fill="#67370d" fill-opacity="0.000000" d="M 851.636 789.972 C 861.725 785.365 843.516 778.321 839.681 778.323 L 839.686 777.323 C 843.824 777.369 862.563 784.819 852.096 790.860 L 851.636 789.972 Z" clip-path="url(#ba780acb-6f87-44ab-87b1-3efcf8a83b50)"/>
<path fill="#67370d" fill-opacity="0.000000" d="M 839.681 778.323 C 833.415 778.259 823.917 783.654 832.786 789.537 L 832.215 790.358 C 822.919 783.593 833.079 777.317 839.686 777.323 L 839.681 778.323 Z" clip-path="url(#ba780acb-6f87-44ab-87b1-3efcf8a83b50)"/>
<path fill="#67370d" fill-opacity="0.000000" d="M 832.786 789.537 C 834.266 790.696 839.736 789.462 842.082 789.771 L 842.056 789.970 C 839.769 789.659 834.319 791.695 832.215 790.358 L 832.786 789.537 Z" clip-path="url(#ba780acb-6f87-44ab-87b1-3efcf8a83b50)"/>
<path fill="#8b4e13" fill-rule="evenodd" stroke="none" d="M 1213.083 727.490 C 1216.881 725.593 1220.796 722.620 1225.344 723.573 C 1238.401 726.310 1226.176 742.187 1219.811 744.714 C 1216.018 746.219 1209.654 747.614 1205.713 746.013 C 1199.057 743.311 1197.073 734.950 1202.346 729.785 C 1205.564 726.633 1209.201 728.725 1213.083 727.490 Z" clip-path="url(#ba780acb-6f87-44ab-87b1-3efcf8a83b50)"/>
<path fill="#67370d" fill-opacity="0.000000" d="M 1213.039 727.401 C 1216.828 725.509 1220.680 722.134 1225.446 723.084 L 1225.241 724.062 C 1220.912 723.106 1216.935 725.678 1213.128 727.580 L 1213.039 727.401 Z" clip-path="url(#ba780acb-6f87-44ab-87b1-3efcf8a83b50)"/>
<path fill="#67370d" fill-opacity="0.000000" d="M 1225.446 723.084 C 1238.901 726.288 1226.528 742.542 1219.996 745.178 L 1219.627 744.249 C 1225.824 741.832 1237.902 726.332 1225.241 724.062 L 1225.446 723.084 Z" clip-path="url(#ba780acb-6f87-44ab-87b1-3efcf8a83b50)"/>
<path fill="#67370d" fill-opacity="0.000000" d="M 1219.996 745.178 C 1216.155 746.700 1209.644 748.114 1205.524 746.477 L 1205.901 745.550 C 1209.664 747.114 1215.880 745.738 1219.627 744.249 L 1219.996 745.178 Z" clip-path="url(#ba780acb-6f87-44ab-87b1-3efcf8a83b50)"/>
<path fill="#67370d" fill-opacity="0.000000" d="M 1205.524 746.477 C 1198.663 743.619 1196.587 734.832 1201.996 729.428 L 1202.696 730.142 C 1197.559 735.068 1199.452 743.003 1205.901 745.550 L 1205.524 746.477 Z" clip-path="url(#ba780acb-6f87-44ab-87b1-3efcf8a83b50)"/>
<path fill="#67370d" fill-opacity="0.000000" d="M 1201.996 729.428 C 1205.488 726.139 1209.212 728.626 1213.053 727.395 L 1213.114 727.585 C 1209.190 728.824 1205.641 727.127 1202.696 730.142 L 1201.996 729.428 Z" clip-path="url(#ba780acb-6f87-44ab-87b1-3efcf8a83b50)"/>
<path fill="#8b4e13" fill-rule="evenodd" stroke="none" d="M 1278.089 693.139 C 1280.365 691.620 1283.222 688.715 1286.073 688.844 C 1297.781 689.370 1287.820 704.655 1283.110 707.421 C 1276.025 711.581 1263.374 708.446 1268.902 698.254 C 1270.468 695.365 1275.224 694.674 1278.089 693.139 Z" clip-path="url(#ba780acb-6f87-44ab-87b1-3efcf8a83b50)"/>
<path fill="#67370d" fill-opacity="0.000000" d="M 1278.033 693.055 C 1280.300 691.544 1283.003 688.266 1286.096 688.344 L 1286.051 689.343 C 1283.441 689.165 1280.430 691.696 1278.144 693.222 L 1278.033 693.055 Z" clip-path="url(#ba780acb-6f87-44ab-87b1-3efcf8a83b50)"/>
<path fill="#67370d" fill-opacity="0.000000" d="M 1286.096 688.344 C 1298.278 689.315 1288.208 704.971 1283.363 707.852 L 1282.857 706.990 C 1287.432 704.340 1297.284 689.425 1286.051 689.343 L 1286.096 688.344 Z" clip-path="url(#ba780acb-6f87-44ab-87b1-3efcf8a83b50)"/>
<path fill="#67370d" fill-opacity="0.000000" d="M 1283.363 707.852 C 1276.051 712.081 1262.933 708.682 1268.462 698.015 L 1269.341 698.492 C 1263.815 708.210 1276.000 711.082 1282.857 706.990 L 1283.363 707.852 Z" clip-path="url(#ba780acb-6f87-44ab-87b1-3efcf8a83b50)"/>
<path fill="#67370d" fill-opacity="0.000000" d="M 1268.462 698.015 C 1270.222 694.930 1275.196 694.578 1278.042 693.050 L 1278.136 693.227 C 1275.252 694.770 1270.714 695.801 1269.341 698.492 L 1268.462 698.015 Z" clip-path="url(#ba780acb-6f87-44ab-87b1-3efcf8a83b50)"/>
<path fill="#b6671c" fill-rule="evenodd" fill-opacity="0.000000" stroke="none" d="M 1339.458 628.372 C 1340.747 616.884 1339.458 601.399 1339.458 589.839 C 1339.451 589.837 1290.916 568.782 1269.054 570.336 C 1237.603 572.571 1202.843 602.456 1173.910 614.987 C 1137.133 630.915 1088.729 655.050 1049.706 664.185 C 1009.286 673.646 953.304 675.214 911.792 675.476 C 875.661 675.704 827.067 674.423 791.621 667.411 C 748.953 658.970 697.258 627.988 654.388 620.640 C 635.185 617.348 608.954 619.109 589.482 618.452 C 589.493 632.680 587.394 651.809 589.517 665.878 C 592.419 685.104 598.449 711.425 609.191 727.632 C 619.016 742.455 638.782 757.240 654.005 766.434 C 685.790 785.631 734.361 799.604 770.409 808.515 C 812.728 818.975 870.843 826.451 914.408 827.981 C 957.333 829.490 1014.766 824.905 1057.288 818.848 C 1083.994 815.044 1119.320 807.549 1145.188 799.898 C 1169.126 792.817 1200.438 781.103 1223.016 770.454 C 1237.652 763.551 1256.753 753.253 1270.005 743.967 C 1281.529 735.893 1296.716 724.365 1305.683 713.522 C 1314.888 702.391 1324.238 685.124 1329.469 671.660 C 1334.295 659.237 1337.971 641.616 1339.458 628.372 M 589.482 618.452 C 589.482 618.452 589.482 618.452 589.482 618.452 Z" clip-path="url(#ba780acb-6f87-44ab-87b1-3efcf8a83b50)"/>
<path fill="none" stroke="#67370d" stroke-width="10" stroke-linecap="round" stroke-linejoin="round" d="M 1339.458 589.839 C 1339.458 589.839 1339.458 589.839 1339.458 589.839 C 1339.458 601.399 1340.747 616.884 1339.458 628.372 C 1337.971 641.616 1334.295 659.237 1329.469 671.660 C 1324.238 685.124 1314.888 702.391 1305.683 713.522 C 1296.716 724.365 1281.529 735.893 1270.005 743.967 C 1256.753 753.253 1237.652 763.551 1223.016 770.454 C 1200.438 781.103 1169.126 792.817 1145.188 799.898 C 1119.320 807.549 1083.994 815.044 1057.288 818.848 C 1014.766 824.905 957.333 829.490 914.408 827.981 C 870.843 826.451 812.728 818.975 770.409 808.515 C 734.361 799.604 685.790 785.631 654.005 766.434 C 638.782 757.240 619.016 742.455 609.191 727.632 C 598.449 711.425 592.419 685.104 589.517 665.878 C 587.394 651.809 589.493 632.680 589.482 618.452 C 589.482 618.452 589.482 618.452 589.482 618.452 C 608.954 619.109 635.185 617.348 654.388 620.640 C 697.258 627.988 748.953 658.970 791.621 667.411 C 827.067 674.423 875.661 675.704 911.792 675.476 C 953.304 675.214 1009.286 673.646 1049.706 664.185 C 1088.729 655.050 1137.133 630.915 1173.910 614.987 C 1202.843 602.456 1237.603 572.571 1269.054 570.336 C 1290.916 568.782 1339.451 589.837 1339.458 589.839 " clip-path="url(#ba780acb-6f87-44ab-87b1-3efcf8a83b50)"/>
</g>
<g id="Layer_5">
<path fill="#fdd717" fill-rule="evenodd" stroke="#67370d" stroke-width="10" stroke-linecap="round" stroke-linejoin="round" d="M 670.456 648.480 C 693.391 661.017 724.466 676.948 748.531 687.149 C 782.601 701.591 829.164 718.451 864.908 728.028 C 887.148 733.987 917.345 740.270 940.240 742.717 C 962.596 745.107 992.837 746.891 1015.168 744.278 C 1040.175 741.351 1072.575 731.267 1096.338 722.944 C 1117.332 715.592 1144.631 703.645 1164.197 693.065 C 1184.945 681.845 1211.463 664.634 1230.066 650.132 C 1243.460 639.691 1260.515 624.577 1271.822 611.905 C 1281.995 600.503 1292.818 583.087 1301.816 570.737 C 1301.816 570.737 1301.816 570.737 1301.816 570.737 C 1258.453 577.537 1201.080 590.641 1157.274 593.403 C 1106.123 596.628 1037.650 584.271 986.523 587.849 C 944.375 590.799 889.899 609.858 847.678 611.451 C 803.988 613.099 745.869 591.632 702.583 597.789 C 679.563 601.064 651.598 616.340 629.747 624.290 C 629.747 624.290 629.747 624.290 629.747 624.290 C 629.806 624.145 657.991 641.666 670.456 648.480 Z"/>
<path fill="#f7a824" fill-rule="evenodd" stroke="none" d="M 1127.323 667.006 C 1132.352 662.477 1137.100 654.607 1141.290 649.293 C 1141.282 649.289 1086.255 623.600 1061.585 615.469 C 1041.448 608.832 1014.084 599.951 992.915 598.755 C 976.919 597.852 954.868 599.302 939.868 604.932 C 920.321 612.269 898.915 631.550 883.052 645.126 C 874.059 652.822 863.618 664.753 855.289 673.164 C 864.497 677.990 876.445 685.114 885.983 689.250 C 901.545 695.997 923.013 703.506 939.506 707.469 C 949.876 709.961 963.987 712.563 974.648 712.839 C 985.983 713.132 1001.078 710.956 1012.248 709.012 C 1028.309 706.216 1049.350 700.479 1064.919 695.644 C 1077.103 691.860 1093.414 686.668 1104.851 681.014 C 1111.973 677.493 1121.420 672.321 1127.323 667.006 M 855.289 673.164 C 855.289 673.164 855.289 673.164 855.289 673.164 Z"/>
<path fill="none" stroke="#67370d" stroke-width="10" stroke-opacity="0.000000" stroke-linecap="round" stroke-linejoin="round" d="M 1141.290 649.293 C 1141.290 649.293 1141.290 649.293 1141.290 649.293 C 1137.100 654.607 1132.352 662.477 1127.323 667.006 C 1121.420 672.321 1111.973 677.493 1104.851 681.014 C 1093.414 686.668 1077.103 691.860 1064.919 695.644 C 1049.350 700.479 1028.309 706.216 1012.248 709.012 C 1001.078 710.956 985.983 713.132 974.648 712.839 C 963.987 712.563 949.876 709.961 939.506 707.469 C 923.013 703.506 901.545 695.997 885.983 689.250 C 876.445 685.114 864.497 677.990 855.289 673.164 C 855.289 673.164 855.289 673.164 855.289 673.164 C 863.618 664.753 874.059 652.822 883.052 645.126 C 898.915 631.550 920.321 612.269 939.868 604.932 C 954.868 599.302 976.919 597.852 992.915 598.755 C 1014.084 599.951 1041.448 608.832 1061.585 615.469 C 1086.255 623.600 1141.282 649.289 1141.290 649.293 "/>
</g>
<g id="Layer_4">
<clipPath id="a00b5b50-1f15-40cd-945a-ba1c0830cf19">
<path fill="#bed34e" fill-rule="evenodd" stroke="none" d="M 571.136 532.992 C 561.849 543.862 551.585 560.297 545.877 573.406 C 543.580 578.682 540.919 586.072 540.465 591.809 C 539.999 597.685 540.593 605.910 542.991 611.295 C 546.359 618.858 554.742 626.932 561.394 631.863 C 568.861 637.398 580.608 642.267 589.557 644.780 C 598.207 647.209 610.335 648.977 619.296 648.320 C 627.853 647.693 639.001 644.207 646.911 640.885 C 655.561 637.253 665.605 629.486 673.818 624.954 C 680.328 621.362 688.749 615.805 695.853 613.613 C 702.461 611.574 711.813 610.413 718.722 610.718 C 724.217 610.961 731.746 612.025 736.669 614.481 C 743.929 618.104 751.032 626.856 756.642 632.718 C 764.745 641.185 773.142 654.646 781.537 662.823 C 788.357 669.466 797.729 678.643 806.431 682.507 C 815.438 686.506 828.985 688.219 838.835 687.898 C 850.355 687.523 865.411 682.990 876.188 678.901 C 886.315 675.059 899.314 668.346 908.088 661.996 C 915.270 656.800 923.428 648.093 929.504 641.639 C 935.960 634.780 942.599 623.785 949.707 617.604 C 954.672 613.287 961.898 607.756 968.168 605.761 C 978.128 602.593 992.745 603.046 1003.000 605.065 C 1012.370 606.910 1023.911 612.967 1032.259 617.604 C 1042.879 623.503 1055.461 633.887 1065.350 640.942 C 1071.560 645.372 1079.088 652.533 1085.976 655.810 C 1096.406 660.772 1111.760 664.745 1123.299 665.259 C 1134.193 665.744 1149.054 663.574 1159.205 659.589 C 1169.377 655.596 1181.735 647.023 1189.441 639.274 C 1195.124 633.560 1199.964 623.690 1204.559 617.069 C 1208.618 611.222 1212.713 602.159 1218.260 597.699 C 1222.365 594.399 1229.156 591.631 1234.323 590.612 C 1244.212 588.663 1258.033 590.291 1267.867 592.502 C 1276.053 594.343 1286.011 599.863 1293.840 602.882 C 1303.551 606.627 1316.077 613.380 1326.365 614.953 C 1335.125 616.292 1347.712 617.066 1355.873 613.612 C 1363.606 610.338 1372.340 601.891 1376.327 594.499 C 1379.820 588.021 1381.141 577.702 1380.686 570.357 C 1380.017 559.562 1373.849 545.960 1369.285 536.155 C 1364.655 526.207 1356.431 513.983 1350.172 504.971 C 1345.960 498.905 1340.288 490.761 1335.083 485.522 C 1332.515 482.938 1328.807 479.694 1325.655 477.869 C 1322.117 475.821 1316.953 473.686 1312.920 473.018 C 1308.430 472.274 1302.305 473.368 1297.760 473.625 C 1262.055 475.639 1214.453 478.938 1178.922 483.005 C 1152.785 485.997 1118.319 492.908 1092.177 495.856 C 1042.960 501.408 977.009 505.907 927.521 507.904 C 828.880 511.886 697.171 508.593 598.450 508.888 C 598.450 508.888 598.450 508.888 598.450 508.888 C 598.483 508.758 578.236 524.683 571.136 532.992 Z"/>
</clipPath>
<path fill="#bed34e" fill-rule="evenodd" stroke="#67370d" stroke-width="10" stroke-linecap="round" stroke-linejoin="round" d="M 571.136 532.992 C 561.849 543.862 551.585 560.297 545.877 573.406 C 543.580 578.682 540.919 586.072 540.465 591.809 C 539.999 597.685 540.593 605.910 542.991 611.295 C 546.359 618.858 554.742 626.932 561.394 631.863 C 568.861 637.398 580.608 642.267 589.557 644.780 C 598.207 647.209 610.335 648.977 619.296 648.320 C 627.853 647.693 639.001 644.207 646.911 640.885 C 655.561 637.253 665.605 629.486 673.818 624.954 C 680.328 621.362 688.749 615.805 695.853 613.613 C 702.461 611.574 711.813 610.413 718.722 610.718 C 724.217 610.961 731.746 612.025 736.669 614.481 C 743.929 618.104 751.032 626.856 756.642 632.718 C 764.745 641.185 773.142 654.646 781.537 662.823 C 788.357 669.466 797.729 678.643 806.431 682.507 C 815.438 686.506 828.985 688.219 838.835 687.898 C 850.355 687.523 865.411 682.990 876.188 678.901 C 886.315 675.059 899.314 668.346 908.088 661.996 C 915.270 656.800 923.428 648.093 929.504 641.639 C 935.960 634.780 942.599 623.785 949.707 617.604 C 954.672 613.287 961.898 607.756 968.168 605.761 C 978.128 602.593 992.745 603.046 1003.000 605.065 C 1012.370 606.910 1023.911 612.967 1032.259 617.604 C 1042.879 623.503 1055.461 633.887 1065.350 640.942 C 1071.560 645.372 1079.088 652.533 1085.976 655.810 C 1096.406 660.772 1111.760 664.745 1123.299 665.259 C 1134.193 665.744 1149.054 663.574 1159.205 659.589 C 1169.377 655.596 1181.735 647.023 1189.441 639.274 C 1195.124 633.560 1199.964 623.690 1204.559 617.069 C 1208.618 611.222 1212.713 602.159 1218.260 597.699 C 1222.365 594.399 1229.156 591.631 1234.323 590.612 C 1244.212 588.663 1258.033 590.291 1267.867 592.502 C 1276.053 594.343 1286.011 599.863 1293.840 602.882 C 1303.551 606.627 1316.077 613.380 1326.365 614.953 C 1335.125 616.292 1347.712 617.066 1355.873 613.612 C 1363.606 610.338 1372.340 601.891 1376.327 594.499 C 1379.820 588.021 1381.141 577.702 1380.686 570.357 C 1380.017 559.562 1373.849 545.960 1369.285 536.155 C 1364.655 526.207 1356.431 513.983 1350.172 504.971 C 1345.960 498.905 1340.288 490.761 1335.083 485.522 C 1332.515 482.938 1328.807 479.694 1325.655 477.869 C 1322.117 475.821 1316.953 473.686 1312.920 473.018 C 1308.430 472.274 1302.305 473.368 1297.760 473.625 C 1262.055 475.639 1214.453 478.938 1178.922 483.005 C 1152.785 485.997 1118.319 492.908 1092.177 495.856 C 1042.960 501.408 977.009 505.907 927.521 507.904 C 828.880 511.886 697.171 508.593 598.450 508.888 C 598.450 508.888 598.450 508.888 598.450 508.888 C 598.483 508.758 578.236 524.683 571.136 532.992 Z"/>
<path fill="#8ebb49" fill-rule="evenodd" stroke="none" d="M 928.170 577.136 C 931.346 572.845 934.350 566.320 936.999 561.685 C 936.964 561.680 693.437 525.288 589.053 509.689 C 586.830 517.857 583.681 528.700 581.641 536.916 C 579.942 543.759 577.408 552.855 576.472 559.843 C 575.737 565.330 574.495 572.845 575.573 578.275 C 576.132 581.089 577.541 584.851 579.394 587.041 C 582.502 590.714 588.572 593.746 593.105 595.358 C 600.844 598.110 612.091 598.654 620.303 598.505 C 630.612 598.318 644.166 595.283 654.244 593.110 C 661.824 591.476 671.637 588.099 679.195 586.367 C 685.885 584.833 694.869 583.008 701.672 582.096 C 707.114 581.367 714.424 580.659 719.915 580.616 C 725.233 580.574 732.366 580.849 737.604 581.765 C 742.976 582.703 750.025 584.734 755.064 586.819 C 761.478 589.472 769.643 594.023 775.280 598.075 C 778.727 600.554 782.922 604.415 785.847 607.494 C 789.484 611.324 793.076 617.536 796.816 621.265 C 800.357 624.796 805.509 629.183 809.870 631.632 C 812.985 633.381 817.506 635.130 821.004 635.854 C 826.252 636.940 833.523 636.950 838.857 636.430 C 844.446 635.886 851.829 634.161 857.094 632.207 C 864.197 629.571 873.088 624.540 879.366 620.299 C 887.109 615.067 895.946 606.135 903.155 600.188 C 907.312 596.759 913.187 592.577 917.134 588.907 C 920.679 585.611 925.289 581.026 928.170 577.136 M 589.053 509.689 C 589.053 509.689 589.053 509.689 589.053 509.689 Z" clip-path="url(#a00b5b50-1f15-40cd-945a-ba1c0830cf19)"/>
<path fill="none" stroke="#67370d" stroke-width="10" stroke-opacity="0.000000" stroke-linecap="round" stroke-linejoin="round" d="M 936.999 561.685 C 936.999 561.685 936.999 561.685 936.999 561.685 C 934.350 566.320 931.346 572.845 928.170 577.136 C 925.289 581.026 920.679 585.611 917.134 588.907 C 913.187 592.577 907.312 596.759 903.155 600.188 C 895.946 606.135 887.109 615.067 879.366 620.299 C 873.088 624.540 864.197 629.571 857.094 632.207 C 851.829 634.161 844.446 635.886 838.857 636.430 C 833.523 636.950 826.252 636.940 821.004 635.854 C 817.506 635.130 812.985 633.381 809.870 631.632 C 805.509 629.183 800.357 624.796 796.816 621.265 C 793.076 617.536 789.484 611.324 785.847 607.494 C 782.922 604.415 778.727 600.554 775.280 598.075 C 769.643 594.023 761.478 589.472 755.064 586.819 C 750.025 584.734 742.976 582.703 737.604 581.765 C 732.366 580.849 725.233 580.574 719.915 580.616 C 714.424 580.659 707.114 581.367 701.672 582.096 C 694.869 583.008 685.885 584.833 679.195 586.367 C 671.637 588.099 661.824 591.476 654.244 593.110 C 644.166 595.283 630.612 598.318 620.303 598.505 C 612.091 598.654 600.844 598.110 593.105 595.358 C 588.572 593.746 582.502 590.714 579.394 587.041 C 577.541 584.851 576.132 581.089 575.573 578.275 C 574.495 572.845 575.737 565.330 576.472 559.843 C 577.408 552.855 579.942 543.759 581.641 536.916 C 583.681 528.700 586.830 517.857 589.053 509.689 C 589.053 509.689 589.053 509.689 589.053 509.689 C 693.437 525.288 936.964 561.680 936.999 561.685 " clip-path="url(#a00b5b50-1f15-40cd-945a-ba1c0830cf19)"/>
<path fill="#8ebb49" fill-rule="evenodd" stroke="none" d="M 1219.813 542.367 C 1221.191 538.907 1221.439 533.831 1222.136 530.173 C 1222.129 530.174 1172.841 538.368 1151.583 540.915 C 1128.665 543.661 1097.464 542.578 1074.933 547.593 C 1059.865 550.947 1040.987 559.639 1026.438 564.802 C 1029.795 568.031 1033.864 572.822 1037.627 575.567 C 1042.326 578.996 1049.614 581.935 1054.752 584.664 C 1062.458 588.758 1072.559 594.562 1080.439 598.311 C 1089.406 602.576 1101.370 608.519 1110.943 611.155 C 1116.580 612.707 1124.362 614.177 1130.208 614.098 C 1136.081 614.019 1144.012 612.779 1149.474 610.620 C 1155.354 608.294 1162.187 603.051 1167.134 599.114 C 1172.998 594.448 1179.822 587.077 1185.062 581.721 C 1191.339 575.306 1199.110 566.183 1205.398 559.780 C 1207.984 557.147 1211.908 554.087 1214.228 551.217 C 1216.202 548.776 1218.652 545.284 1219.813 542.367 M 1026.438 564.802 C 1026.438 564.802 1026.438 564.802 1026.438 564.802 Z" clip-path="url(#a00b5b50-1f15-40cd-945a-ba1c0830cf19)"/>
<path fill="none" stroke="#67370d" stroke-width="10" stroke-opacity="0.000000" stroke-linecap="round" stroke-linejoin="round" d="M 1222.136 530.173 C 1222.136 530.173 1222.136 530.173 1222.136 530.173 C 1221.439 533.831 1221.191 538.907 1219.813 542.367 C 1218.652 545.284 1216.202 548.776 1214.228 551.217 C 1211.908 554.087 1207.984 557.147 1205.398 559.780 C 1199.110 566.183 1191.339 575.306 1185.062 581.721 C 1179.822 587.077 1172.998 594.448 1167.134 599.114 C 1162.187 603.051 1155.354 608.294 1149.474 610.620 C 1144.012 612.779 1136.081 614.019 1130.208 614.098 C 1124.362 614.177 1116.580 612.707 1110.943 611.155 C 1101.370 608.519 1089.406 602.576 1080.439 598.311 C 1072.559 594.562 1062.458 588.758 1054.752 584.664 C 1049.614 581.935 1042.326 578.996 1037.627 575.567 C 1033.864 572.822 1029.795 568.031 1026.438 564.802 C 1026.438 564.802 1026.438 564.802 1026.438 564.802 C 1040.987 559.639 1059.865 550.947 1074.933 547.593 C 1097.464 542.578 1128.665 543.661 1151.583 540.915 C 1172.841 538.368 1222.129 530.174 1222.136 530.173 " clip-path="url(#a00b5b50-1f15-40cd-945a-ba1c0830cf19)"/>
<path fill="#8ebb49" fill-rule="evenodd" stroke="#67370d" stroke-width="10" stroke-opacity="0.000000" stroke-linecap="round" stroke-linejoin="round" d="M 1324.836 478.659 C 1324.836 478.659 1324.836 478.659 1324.836 478.659 C 1335.072 489.490 1352.524 501.319 1358.954 514.762 C 1359.697 516.315 1360.327 518.641 1360.218 520.358 C 1360.025 523.389 1357.593 526.941 1356.427 529.745 C 1355.001 533.173 1353.029 537.712 1351.553 541.118 C 1349.836 545.079 1348.490 550.940 1345.776 554.296 C 1343.658 556.915 1339.936 559.881 1336.750 560.975 C 1334.443 561.768 1331.058 561.537 1328.627 561.336 C 1325.144 561.049 1320.519 560.055 1317.254 558.809 C 1313.357 557.321 1308.818 553.954 1305.159 551.949 C 1299.254 548.713 1291.646 543.739 1285.302 541.479 C 1279.729 539.494 1271.855 538.260 1265.987 537.508 C 1261.091 536.880 1254.488 536.876 1249.559 536.605 C 1249.559 536.605 1249.559 536.605 1249.559 536.605 C 1272.142 519.221 1324.828 478.664 1324.836 478.659 C 1324.836 478.659 1324.836 478.659 1324.836 478.659 Z" clip-path="url(#a00b5b50-1f15-40cd-945a-ba1c0830cf19)"/>
<path fill="#bed34e" fill-rule="evenodd" fill-opacity="0.000000" stroke="#67370d" stroke-width="10" stroke-linecap="round" stroke-linejoin="round" d="M 571.136 532.992 C 561.849 543.862 551.585 560.297 545.877 573.406 C 543.580 578.682 540.919 586.072 540.465 591.809 C 539.999 597.685 540.592 605.910 542.990 611.295 C 546.359 618.858 554.742 626.932 561.394 631.863 C 568.861 637.398 580.608 642.267 589.557 644.780 C 598.207 647.209 610.335 648.977 619.296 648.320 C 627.853 647.693 639.001 644.207 646.911 640.886 C 655.561 637.253 665.605 629.487 673.818 624.954 C 680.328 621.362 688.749 615.805 695.854 613.613 C 702.461 611.574 711.813 610.413 718.721 610.718 C 724.217 610.961 731.746 612.025 736.669 614.481 C 743.929 618.104 751.032 626.856 756.642 632.718 C 764.745 641.185 773.142 654.646 781.537 662.823 C 788.357 669.466 797.729 678.644 806.431 682.507 C 815.438 686.506 828.985 688.219 838.835 687.898 C 850.355 687.523 865.411 682.990 876.188 678.901 C 886.315 675.059 899.314 668.346 908.088 661.996 C 915.269 656.800 923.428 648.093 929.504 641.639 C 935.960 634.780 942.599 623.785 949.707 617.604 C 954.672 613.287 961.897 607.756 968.167 605.761 C 978.127 602.592 992.745 603.046 1003.000 605.065 C 1012.370 606.909 1023.911 612.967 1032.259 617.604 C 1042.878 623.504 1055.460 633.888 1065.350 640.942 C 1071.559 645.372 1079.088 652.533 1085.976 655.810 C 1096.406 660.771 1111.760 664.745 1123.299 665.258 C 1134.194 665.744 1149.054 663.574 1159.205 659.589 C 1169.377 655.596 1181.735 647.023 1189.441 639.274 C 1195.124 633.560 1199.964 623.690 1204.560 617.069 C 1208.618 611.222 1212.713 602.158 1218.260 597.699 C 1222.366 594.399 1229.156 591.631 1234.323 590.613 C 1244.212 588.663 1258.033 590.291 1267.867 592.502 C 1276.054 594.343 1286.011 599.863 1293.840 602.882 C 1303.551 606.627 1316.077 613.380 1326.365 614.953 C 1335.125 616.292 1347.712 617.066 1355.872 613.612 C 1363.606 610.338 1372.340 601.891 1376.327 594.499 C 1379.820 588.021 1381.141 577.702 1380.686 570.357 C 1380.018 559.562 1373.849 545.960 1369.285 536.155 C 1364.655 526.207 1356.431 513.983 1350.172 504.971 C 1345.960 498.905 1340.288 490.761 1335.083 485.523 C 1332.516 482.938 1328.807 479.695 1325.655 477.869 C 1322.117 475.821 1316.953 473.686 1312.920 473.018 C 1308.430 472.274 1302.305 473.368 1297.760 473.624 C 1262.055 475.639 1214.453 478.938 1178.923 483.005 C 1152.786 485.997 1118.319 492.908 1092.177 495.857 C 1042.960 501.408 977.009 505.907 927.521 507.905 C 828.879 511.886 697.171 508.593 598.450 508.888 C 598.450 508.888 598.450 508.888 598.450 508.888 C 598.483 508.758 578.236 524.683 571.136 532.992 Z" clip-path="url(#a00b5b50-1f15-40cd-945a-ba1c0830cf19)"/>
</g>
<g id="Layer_3">
<clipPath id="ad58f391-c8ab-4786-84dd-6c9aa1041d8a">
<path fill="#f7a846" fill-rule="evenodd" stroke="none" d="M 593.695 393.453 C 588.241 412.703 583.393 439.339 583.399 459.348 C 583.404 475.904 584.718 498.875 591.636 513.917 C 596.676 524.876 607.388 538.043 617.377 544.805 C 637.297 558.293 670.880 562.394 694.597 566.427 C 759.212 577.415 847.337 576.450 912.875 575.693 C 974.778 574.979 1057.314 569.544 1118.797 562.309 C 1152.688 558.320 1197.939 552.132 1231.025 543.776 C 1249.019 539.231 1274.078 534.211 1289.713 524.213 C 1299.692 517.831 1312.101 506.641 1317.368 496.031 C 1328.817 472.967 1327.807 436.203 1325.342 410.573 C 1322.445 380.447 1309.864 341.035 1296.393 313.933 C 1281.228 283.421 1253.012 246.677 1228.965 222.537 C 1212.719 206.227 1187.968 187.351 1167.905 176.063 C 1148.078 164.909 1119.196 154.604 1097.335 148.311 C 1070.837 140.683 1034.402 134.168 1006.942 131.660 C 979.462 129.149 942.375 128.504 914.962 131.660 C 884.124 135.210 843.377 144.681 814.262 155.447 C 794.171 162.876 768.650 176.218 750.528 187.638 C 728.136 201.750 699.370 222.860 680.885 241.805 C 665.617 257.454 648.976 281.726 637.271 300.192 C 630.962 310.144 623.815 324.179 618.544 334.717 C 616.769 338.265 614.556 343.072 612.952 346.700 C 612.725 346.361 597.831 378.858 593.695 393.453 Z"/>
</clipPath>
<path fill="#f7a846" fill-rule="evenodd" stroke="#67370d" stroke-width="10" stroke-linecap="round" stroke-linejoin="round" d="M 593.695 393.453 C 588.241 412.703 583.393 439.339 583.399 459.348 C 583.404 475.904 584.718 498.875 591.636 513.917 C 596.676 524.876 607.388 538.043 617.377 544.805 C 637.297 558.293 670.880 562.394 694.597 566.427 C 759.212 577.415 847.337 576.450 912.875 575.693 C 974.778 574.979 1057.314 569.544 1118.797 562.309 C 1152.688 558.320 1197.939 552.132 1231.025 543.776 C 1249.019 539.231 1274.078 534.211 1289.713 524.213 C 1299.692 517.831 1312.101 506.641 1317.368 496.031 C 1328.817 472.967 1327.807 436.203 1325.342 410.573 C 1322.445 380.447 1309.864 341.035 1296.393 313.933 C 1281.228 283.421 1253.012 246.677 1228.965 222.537 C 1212.719 206.227 1187.968 187.351 1167.905 176.063 C 1148.078 164.909 1119.196 154.604 1097.335 148.311 C 1070.837 140.683 1034.402 134.168 1006.942 131.660 C 979.462 129.149 942.375 128.504 914.962 131.660 C 884.124 135.210 843.377 144.681 814.262 155.447 C 794.171 162.876 768.650 176.218 750.528 187.638 C 728.136 201.750 699.370 222.860 680.885 241.805 C 665.617 257.454 648.976 281.726 637.271 300.192 C 630.962 310.144 623.815 324.179 618.544 334.717 C 616.769 338.265 614.556 343.072 612.952 346.700 C 612.725 346.361 597.831 378.858 593.695 393.453 Z"/>
<path fill="#f39437" fill-rule="evenodd" stroke="none" d="M 1304.283 467.105 C 1314.946 459.796 1328.192 448.713 1338.439 440.831 C 1338.438 440.836 1336.262 477.328 1330.445 491.611 C 1324.472 506.278 1312.554 525.187 1299.831 534.617 C 1275.699 552.504 1233.051 556.350 1203.612 562.317 C 1143.898 574.419 1062.512 580.446 1001.699 584.184 C 946.471 587.580 872.595 588.501 817.281 587.100 C 783.089 586.234 737.383 584.596 703.498 579.950 C 684.729 577.376 659.529 573.501 641.631 567.292 C 629.411 563.053 612.661 556.814 602.931 548.294 C 592.271 538.961 581.617 522.249 576.896 508.891 C 571.108 492.511 571.155 468.546 571.971 451.193 C 573.041 428.447 579.130 398.303 586.043 376.607 C 593.328 353.749 607.480 324.734 619.513 303.978 C 632.381 281.783 651.590 253.028 669.220 234.389 C 681.745 221.146 701.351 206.415 716.275 195.950 C 729.319 186.804 747.596 175.822 761.819 168.646 C 769.727 164.657 780.835 160.554 788.985 157.087 C 773.882 174.620 751.324 196.176 738.641 215.532 C 729.285 229.809 718.985 250.417 713.543 266.596 C 707.849 283.525 702.890 307.201 702.245 325.050 C 701.613 342.550 704.503 366.123 709.122 383.014 C 712.611 395.772 720.200 411.914 726.600 423.490 C 731.340 432.064 738.789 442.885 744.951 450.501 C 752.794 460.195 764.318 472.327 773.819 480.401 C 784.888 489.807 801.087 500.654 813.704 507.851 C 826.186 514.971 843.643 523.122 857.160 528.001 C 870.836 532.936 889.734 537.660 904.016 540.382 C 916.911 542.840 934.362 544.716 947.458 545.610 C 960.079 546.472 976.972 546.631 989.618 546.325 C 1000.714 546.055 1015.497 545.069 1026.539 543.943 C 1046.431 541.913 1072.842 538.048 1092.504 534.415 C 1117.641 529.769 1150.831 521.863 1175.586 515.485 C 1195.185 510.435 1221.221 503.248 1240.440 496.905 C 1252.144 493.042 1267.896 488.054 1278.964 482.631 C 1286.965 478.711 1296.934 472.143 1304.283 467.105 M 788.985 157.087 C 788.985 157.087 788.985 157.087 788.985 157.087 Z" clip-path="url(#ad58f391-c8ab-4786-84dd-6c9aa1041d8a)"/>
<path fill="none" stroke="#67370d" stroke-width="10" stroke-opacity="0.000000" stroke-linecap="round" stroke-linejoin="round" d="M 1338.439 440.831 C 1338.439 440.831 1338.439 440.831 1338.439 440.831 C 1328.192 448.713 1314.946 459.796 1304.283 467.105 C 1296.934 472.143 1286.965 478.711 1278.964 482.631 C 1267.896 488.054 1252.144 493.042 1240.440 496.905 C 1221.221 503.248 1195.185 510.435 1175.586 515.485 C 1150.831 521.863 1117.641 529.769 1092.504 534.415 C 1072.842 538.048 1046.431 541.913 1026.539 543.943 C 1015.497 545.069 1000.714 546.055 989.618 546.325 C 976.972 546.631 960.079 546.472 947.458 545.610 C 934.362 544.716 916.911 542.840 904.016 540.382 C 889.734 537.660 870.836 532.936 857.160 528.001 C 843.643 523.122 826.186 514.971 813.704 507.851 C 801.087 500.654 784.888 489.807 773.819 480.401 C 764.318 472.327 752.794 460.195 744.951 450.501 C 738.789 442.885 731.340 432.064 726.600 423.490 C 720.200 411.914 712.611 395.772 709.122 383.014 C 704.503 366.123 701.613 342.550 702.245 325.050 C 702.890 307.201 707.849 283.525 713.543 266.596 C 718.985 250.417 729.285 229.809 738.641 215.532 C 751.324 196.176 773.882 174.620 788.985 157.087 C 788.985 157.087 788.985 157.087 788.985 157.087 C 780.835 160.554 769.727 164.657 761.819 168.646 C 747.596 175.822 729.319 186.804 716.275 195.950 C 701.351 206.415 681.745 221.146 669.220 234.389 C 651.590 253.028 632.381 281.783 619.513 303.978 C 607.480 324.734 593.328 353.749 586.043 376.607 C 579.130 398.303 573.041 428.447 571.971 451.193 C 571.155 468.546 571.108 492.511 576.896 508.891 C 581.617 522.249 592.271 538.961 602.931 548.294 C 612.661 556.814 629.411 563.053 641.631 567.292 C 659.529 573.501 684.729 577.376 703.498 579.950 C 737.383 584.596 783.089 586.234 817.281 587.100 C 872.595 588.501 946.471 587.580 1001.699 584.184 C 1062.512 580.446 1143.898 574.419 1203.612 562.317 C 1233.051 556.350 1275.699 552.504 1299.831 534.617 C 1312.554 525.187 1324.472 506.278 1330.445 491.611 C 1336.262 477.328 1338.438 440.836 1338.439 440.831 " clip-path="url(#ad58f391-c8ab-4786-84dd-6c9aa1041d8a)"/>
<path fill="#fccc79" fill-rule="evenodd" stroke="#67370d" stroke-width="10" stroke-opacity="0.000000" stroke-linecap="round" stroke-linejoin="round" d="M 1177.767 235.517 C 1181.903 238.998 1187.140 243.973 1190.874 247.882 C 1196.112 253.365 1202.667 261.093 1207.293 267.102 C 1211.958 273.162 1217.539 281.711 1221.793 288.066 C 1225.545 293.671 1230.298 301.309 1234.021 306.933 C 1236.601 310.829 1239.937 316.099 1242.736 319.839 C 1245.636 323.714 1249.585 328.858 1253.021 332.266 C 1253.555 332.796 1254.280 333.511 1254.925 333.898 C 1255.722 334.375 1256.904 334.835 1257.818 335.000 C 1258.998 335.212 1260.646 335.203 1261.813 334.931 C 1262.993 334.656 1264.505 333.949 1265.464 333.209 C 1266.300 332.563 1267.266 331.467 1267.737 330.522 C 1268.360 329.274 1268.745 327.369 1268.702 325.976 C 1268.659 324.583 1267.901 322.821 1267.461 321.499 C 1266.323 318.076 1264.411 313.653 1262.984 310.340 C 1261.353 306.552 1259.127 301.517 1257.222 297.860 C 1254.246 292.147 1249.899 284.718 1246.324 279.359 C 1242.603 273.780 1237.091 266.719 1232.892 261.491 C 1229.601 257.394 1225.131 251.984 1221.510 248.175 C 1217.445 243.901 1211.660 238.554 1207.209 234.685 C 1203.255 231.247 1197.832 226.824 1193.583 223.757 C 1188.004 219.729 1180.278 214.741 1174.292 211.346 C 1171.012 209.486 1166.515 207.218 1163.065 205.696 C 1161.742 205.113 1159.991 204.238 1158.576 203.940 C 1157.391 203.690 1155.731 203.511 1154.543 203.744 C 1153.446 203.960 1151.980 204.546 1151.159 205.306 C 1150.134 206.255 1149.280 208.047 1148.948 209.404 C 1148.702 210.409 1148.854 211.822 1148.948 212.852 C 1148.999 213.424 1149.062 214.205 1149.273 214.739 C 1149.721 215.872 1150.719 217.231 1151.615 218.057 C 1153.048 219.379 1155.591 220.265 1157.276 221.246 C 1159.106 222.312 1161.536 223.754 1163.326 224.889 C 1164.132 225.401 1165.184 226.120 1165.980 226.648 C 1165.980 226.648 1165.980 226.648 1165.980 226.648 C 1165.992 226.638 1174.381 232.668 1177.767 235.517 Z" clip-path="url(#ad58f391-c8ab-4786-84dd-6c9aa1041d8a)"/>
<path fill="#fccc79" fill-rule="evenodd" stroke="#67370d" stroke-width="10" stroke-opacity="0.000000" stroke-linecap="round" stroke-linejoin="round" d="M 1285.009 361.378 C 1285.226 363.429 1285.540 366.169 1285.967 368.187 C 1286.470 370.558 1287.809 373.561 1288.201 375.953 C 1288.785 379.515 1289.086 384.396 1288.627 387.976 C 1288.357 390.081 1288.038 393.129 1286.712 394.785 C 1285.702 396.046 1283.631 397.226 1282.031 397.445 C 1280.765 397.618 1278.965 397.164 1277.881 396.487 C 1276.278 395.487 1274.944 393.152 1274.051 391.487 C 1273.221 389.939 1272.782 387.588 1272.136 385.954 C 1271.053 383.218 1268.956 379.830 1268.093 377.017 C 1267.076 373.707 1266.399 369.090 1266.178 365.633 C 1266.000 362.860 1265.447 358.949 1266.497 356.377 C 1267.283 354.450 1269.211 352.094 1271.072 351.164 C 1272.933 350.233 1275.959 350.170 1277.988 350.632 C 1279.408 350.955 1281.181 351.976 1282.243 352.973 C 1283.047 353.726 1283.840 355.023 1284.259 356.041 C 1284.548 356.746 1284.632 357.779 1284.792 358.524 C 1284.792 358.524 1284.792 358.524 1284.792 358.524 C 1284.793 358.518 1284.919 360.524 1285.009 361.378 Z" clip-path="url(#ad58f391-c8ab-4786-84dd-6c9aa1041d8a)"/>
<path fill="#fbee87" fill-rule="evenodd" stroke="none" d="M 1088.247 187.407 C 1084.162 184.678 1081.785 182.139 1076.186 182.753 C 1068.453 183.600 1073.375 192.982 1076.610 195.659 C 1078.330 197.083 1082.443 199.906 1084.565 200.128 C 1094.363 201.151 1092.894 192.318 1088.247 187.407 Z" clip-path="url(#ad58f391-c8ab-4786-84dd-6c9aa1041d8a)"/>
<path fill="#67370d" fill-opacity="0.000000" d="M 1088.192 187.490 C 1084.099 184.755 1081.668 182.625 1076.240 183.250 L 1076.131 182.256 C 1081.902 181.653 1084.226 184.600 1088.303 187.324 L 1088.192 187.490 Z" clip-path="url(#ad58f391-c8ab-4786-84dd-6c9aa1041d8a)"/>
<path fill="#67370d" fill-opacity="0.000000" d="M 1076.240 183.250 C 1068.935 183.733 1073.789 192.702 1076.929 195.274 L 1076.291 196.044 C 1072.961 193.262 1067.971 183.468 1076.131 182.256 L 1076.240 183.250 Z" clip-path="url(#ad58f391-c8ab-4786-84dd-6c9aa1041d8a)"/>
<path fill="#67370d" fill-opacity="0.000000" d="M 1076.929 195.274 C 1078.625 196.679 1082.662 199.457 1084.617 199.630 L 1084.513 200.625 C 1082.224 200.356 1078.036 197.488 1076.291 196.044 L 1076.929 195.274 Z" clip-path="url(#ad58f391-c8ab-4786-84dd-6c9aa1041d8a)"/>
<path fill="#67370d" fill-opacity="0.000000" d="M 1084.617 199.630 C 1094.021 200.786 1092.802 192.359 1088.175 187.476 L 1088.320 187.338 C 1092.985 192.277 1094.705 201.516 1084.513 200.625 L 1084.617 199.630 Z" clip-path="url(#ad58f391-c8ab-4786-84dd-6c9aa1041d8a)"/>
<path fill="#fbee87" fill-rule="evenodd" stroke="none" d="M 1026.315 149.647 C 1031.737 150.555 1039.335 165.193 1029.573 164.425 C 1021.003 163.751 1013.609 149.647 1026.315 149.647 Z" clip-path="url(#ad58f391-c8ab-4786-84dd-6c9aa1041d8a)"/>
<path fill="#67370d" fill-opacity="0.000000" d="M 1026.332 149.548 C 1031.814 150.491 1039.829 165.270 1029.534 164.924 L 1029.612 163.927 C 1038.841 165.116 1031.661 150.619 1026.299 149.746 L 1026.332 149.548 Z" clip-path="url(#ad58f391-c8ab-4786-84dd-6c9aa1041d8a)"/>
<path fill="#67370d" fill-opacity="0.000000" d="M 1029.534 164.924 C 1020.664 164.118 1013.516 149.612 1026.315 149.547 L 1026.315 149.747 C 1013.703 149.682 1021.343 163.384 1029.612 163.927 L 1029.534 164.924 Z" clip-path="url(#ad58f391-c8ab-4786-84dd-6c9aa1041d8a)"/>
<path fill="#fbee87" fill-rule="evenodd" stroke="none" d="M 1038.153 231.246 C 1039.901 232.996 1042.686 232.891 1043.490 235.821 C 1045.645 243.669 1034.533 241.427 1031.113 238.157 C 1026.628 233.867 1034.027 227.323 1038.153 231.246 Z" clip-path="url(#ad58f391-c8ab-4786-84dd-6c9aa1041d8a)"/>
<path fill="#67370d" fill-opacity="0.000000" d="M 1038.224 231.175 C 1039.935 232.902 1042.995 232.499 1043.973 235.688 L 1043.008 235.953 C 1042.377 233.284 1039.867 233.090 1038.082 231.317 L 1038.224 231.175 Z" clip-path="url(#ad58f391-c8ab-4786-84dd-6c9aa1041d8a)"/>
<path fill="#67370d" fill-opacity="0.000000" d="M 1043.973 235.688 C 1045.911 244.093 1034.355 241.895 1030.768 238.518 L 1031.459 237.795 C 1034.710 240.960 1045.380 243.245 1043.008 235.953 L 1043.973 235.688 Z" clip-path="url(#ad58f391-c8ab-4786-84dd-6c9aa1041d8a)"/>
<path fill="#67370d" fill-opacity="0.000000" d="M 1030.768 238.518 C 1026.145 233.737 1034.005 227.226 1038.222 231.173 L 1038.084 231.318 C 1034.050 227.421 1027.111 233.997 1031.459 237.795 L 1030.768 238.518 Z" clip-path="url(#ad58f391-c8ab-4786-84dd-6c9aa1041d8a)"/>
<path fill="#fbee87" fill-rule="evenodd" stroke="none" d="M 970.093 200.372 C 970.589 200.124 973.150 203.524 973.447 203.901 C 975.174 206.100 983.542 213.923 978.114 216.671 C 969.737 220.912 957.028 200.321 970.093 200.372 Z" clip-path="url(#ad58f391-c8ab-4786-84dd-6c9aa1041d8a)"/>
<path fill="#67370d" fill-opacity="0.000000" d="M 970.048 200.282 C 970.661 200.054 973.549 203.222 973.840 203.592 L 973.053 204.210 C 972.751 203.826 970.518 200.194 970.137 200.461 L 970.048 200.282 Z" clip-path="url(#ad58f391-c8ab-4786-84dd-6c9aa1041d8a)"/>
<path fill="#67370d" fill-opacity="0.000000" d="M 973.840 203.592 C 975.527 205.745 984.023 213.789 978.340 217.117 L 977.888 216.225 C 983.060 214.057 974.822 206.455 973.053 204.210 L 973.840 203.592 Z" clip-path="url(#ad58f391-c8ab-4786-84dd-6c9aa1041d8a)"/>
<path fill="#67370d" fill-opacity="0.000000" d="M 978.340 217.117 C 969.431 221.307 956.928 200.320 970.093 200.272 L 970.092 200.472 C 957.128 200.323 970.043 220.516 977.888 216.225 L 978.340 217.117 Z" clip-path="url(#ad58f391-c8ab-4786-84dd-6c9aa1041d8a)"/>
<path fill="#fbee87" fill-rule="evenodd" stroke="none" d="M 978.729 256.535 C 980.571 255.921 982.969 258.492 983.460 260.022 C 984.932 264.606 982.751 270.295 977.309 269.887 C 968.256 269.208 969.347 253.518 978.729 256.535 Z" clip-path="url(#ad58f391-c8ab-4786-84dd-6c9aa1041d8a)"/>
<path fill="#67370d" fill-opacity="0.000000" d="M 978.697 256.440 C 980.613 255.830 983.378 258.204 983.936 259.869 L 982.984 260.175 C 982.560 258.780 980.529 256.011 978.760 256.629 L 978.697 256.440 Z" clip-path="url(#ad58f391-c8ab-4786-84dd-6c9aa1041d8a)"/>
<path fill="#67370d" fill-opacity="0.000000" d="M 983.936 259.869 C 985.431 264.641 983.036 270.706 977.271 270.385 L 977.346 269.388 C 982.466 269.884 984.434 264.572 982.984 260.175 L 983.936 259.869 Z" clip-path="url(#ad58f391-c8ab-4786-84dd-6c9aa1041d8a)"/>
<path fill="#67370d" fill-opacity="0.000000" d="M 977.271 270.385 C 967.806 269.427 969.270 253.454 978.759 256.439 L 978.698 256.630 C 969.424 253.581 968.705 268.989 977.346 269.388 L 977.271 270.385 Z" clip-path="url(#ad58f391-c8ab-4786-84dd-6c9aa1041d8a)"/>
<path fill="#fbee87" fill-rule="evenodd" stroke="none" d="M 913.981 238.544 C 917.313 238.544 920.751 233.356 924.606 235.165 C 934.031 239.585 920.801 251.970 915.014 252.597 C 904.083 253.783 906.137 241.356 913.981 238.544 Z" clip-path="url(#ad58f391-c8ab-4786-84dd-6c9aa1041d8a)"/>
<path fill="#67370d" fill-opacity="0.000000" d="M 913.981 238.444 C 917.252 238.465 920.541 232.903 924.819 234.712 L 924.394 235.617 C 920.961 233.810 917.373 238.623 913.981 238.644 L 913.981 238.444 Z" clip-path="url(#ad58f391-c8ab-4786-84dd-6c9aa1041d8a)"/>
<path fill="#67370d" fill-opacity="0.000000" d="M 924.819 234.712 C 934.519 239.695 921.083 252.382 915.068 253.095 L 914.960 252.100 C 920.518 251.557 933.544 239.475 924.394 235.617 L 924.819 234.712 Z" clip-path="url(#ad58f391-c8ab-4786-84dd-6c9aa1041d8a)"/>
<path fill="#67370d" fill-opacity="0.000000" d="M 915.068 253.095 C 903.691 254.093 906.053 241.302 913.948 238.450 L 914.015 238.638 C 906.221 241.411 904.476 253.473 914.960 252.100 L 915.068 253.095 Z" clip-path="url(#ad58f391-c8ab-4786-84dd-6c9aa1041d8a)"/>
<path fill="#fbee87" fill-rule="evenodd" stroke="none" d="M 882.149 176.655 C 874.604 179.172 874.152 191.295 883.724 190.214 C 890.148 189.488 894.962 181.528 888.591 176.916 C 885.966 175.016 884.562 176.655 882.149 176.655 Z" clip-path="url(#ad58f391-c8ab-4786-84dd-6c9aa1041d8a)"/>
<path fill="#67370d" fill-opacity="0.000000" d="M 882.180 176.749 C 874.692 179.220 874.538 190.977 883.668 189.717 L 883.781 190.711 C 873.766 191.614 874.516 179.124 882.117 176.560 L 882.180 176.749 Z" clip-path="url(#ad58f391-c8ab-4786-84dd-6c9aa1041d8a)"/>
<path fill="#67370d" fill-opacity="0.000000" d="M 883.668 189.717 C 889.843 189.093 894.466 181.590 888.298 177.321 L 888.884 176.511 C 895.459 181.467 890.454 189.884 883.781 190.711 L 883.668 189.717 Z" clip-path="url(#ad58f391-c8ab-4786-84dd-6c9aa1041d8a)"/>
<path fill="#67370d" fill-opacity="0.000000" d="M 888.298 177.321 C 885.933 175.515 884.601 176.747 882.149 176.755 L 882.149 176.555 C 884.522 176.563 885.998 174.517 888.884 176.511 L 888.298 177.321 Z" clip-path="url(#ad58f391-c8ab-4786-84dd-6c9aa1041d8a)"/>
<path fill="#fbee87" fill-rule="evenodd" stroke="none" d="M 835.979 236.462 C 849.505 229.690 852.035 246.063 837.627 248.538 C 826.605 250.431 825.119 236.863 835.979 236.462 Z" clip-path="url(#ad58f391-c8ab-4786-84dd-6c9aa1041d8a)"/>
<path fill="#67370d" fill-opacity="0.000000" d="M 835.935 236.373 C 849.556 229.604 852.458 246.330 837.712 249.031 L 837.543 248.045 C 851.612 245.797 849.453 229.776 836.024 236.552 L 835.935 236.373 Z" clip-path="url(#ad58f391-c8ab-4786-84dd-6c9aa1041d8a)"/>
<path fill="#67370d" fill-opacity="0.000000" d="M 837.712 249.031 C 826.264 250.797 825.036 236.808 835.976 236.362 L 835.983 236.562 C 825.202 236.919 826.946 250.065 837.543 248.045 L 837.712 249.031 Z" clip-path="url(#ad58f391-c8ab-4786-84dd-6c9aa1041d8a)"/>
<path fill="#67370d" fill-rule="evenodd" fill-opacity="0.000000" stroke="#67370d" stroke-width="10" stroke-opacity="0.000000" stroke-linecap="round" stroke-linejoin="round" d="M 831.108 303.285 C 807.975 303.284 789.313 321.946 789.313 345.079 C 789.313 368.213 807.975 386.874 831.108 386.874 C 854.241 386.874 872.902 368.212 872.902 345.079 C 872.902 321.946 854.241 303.285 831.108 303.285 Z" clip-path="url(#ad58f391-c8ab-4786-84dd-6c9aa1041d8a)"/>
<path fill="#ffffff" fill-rule="evenodd" fill-opacity="0.000000" stroke="#67370d" stroke-width="10" stroke-opacity="0.000000" stroke-linecap="round" stroke-linejoin="round" d="M 815.677 315.751 C 808.777 315.751 803.210 321.318 803.211 328.218 C 803.211 335.119 808.777 340.685 815.677 340.685 C 822.578 340.685 828.144 335.119 828.144 328.218 C 828.145 321.318 822.578 315.751 815.677 315.751 Z" clip-path="url(#ad58f391-c8ab-4786-84dd-6c9aa1041d8a)"/>
<path fill="#ec6447" fill-rule="evenodd" fill-opacity="0.000000" stroke="#67370d" stroke-width="10" stroke-opacity="0.000000" stroke-linecap="round" stroke-linejoin="round" d="M 1130.928 400.465 C 1095.939 399.388 1079.675 418.376 1079.579 435.190 C 1079.482 452.006 1095.524 470.334 1130.535 470.505 C 1163.814 470.668 1178.918 453.721 1179.523 437.748 C 1180.153 421.146 1165.501 401.529 1130.928 400.465 Z" clip-path="url(#ad58f391-c8ab-4786-84dd-6c9aa1041d8a)"/>
<path fill="#ec6447" fill-rule="evenodd" fill-opacity="0.000000" stroke="#67370d" stroke-width="10" stroke-opacity="0.000000" stroke-linecap="round" stroke-linejoin="round" d="M 821.213 400.533 C 786.223 399.455 769.960 418.443 769.863 435.257 C 769.767 452.074 785.809 470.402 820.819 470.573 C 854.099 470.735 869.202 453.789 869.808 437.815 C 870.438 421.214 855.785 401.597 821.213 400.533 Z" clip-path="url(#ad58f391-c8ab-4786-84dd-6c9aa1041d8a)"/>
<path fill="#67370d" fill-rule="evenodd" fill-opacity="0.000000" stroke="none" d="M 1090.837 374.690 C 1097.923 378.165 1107.385 382.770 1114.477 386.233 C 1114.478 386.234 1124.831 391.758 1129.455 393.722 C 1130.475 394.156 1131.827 394.819 1132.920 395.002 C 1134.221 395.221 1136.028 395.172 1137.314 394.882 C 1138.860 394.534 1140.896 393.710 1142.130 392.715 C 1143.487 391.620 1144.944 389.652 1145.561 388.020 C 1146.214 386.290 1146.232 383.725 1146.102 381.880 C 1146.024 380.775 1145.766 379.284 1145.320 378.269 C 1144.784 377.048 1143.719 375.553 1142.732 374.657 C 1141.823 373.833 1140.275 373.187 1139.200 372.595 C 1135.819 370.735 1131.199 368.466 1127.742 366.751 C 1122.834 364.316 1116.209 361.237 1111.286 358.831 C 1103.889 355.214 1094.082 350.278 1086.709 346.612 C 1103.959 334.702 1126.722 318.467 1144.211 306.910 C 1145.924 305.777 1148.451 304.594 1149.976 303.219 C 1150.844 302.437 1151.881 301.235 1152.454 300.218 C 1153.080 299.107 1153.642 297.461 1153.844 296.202 C 1154.124 294.463 1154.167 292.028 1153.690 290.332 C 1153.212 288.633 1152.003 286.482 1150.755 285.234 C 1149.397 283.877 1147.057 282.532 1145.194 282.068 C 1143.755 281.710 1141.708 281.867 1140.251 282.145 C 1139.012 282.382 1137.435 283.039 1136.312 283.612 C 1135.196 284.183 1133.873 285.225 1132.836 285.929 C 1127.839 289.325 1121.283 294.009 1116.308 297.437 C 1102.224 307.141 1083.151 319.654 1069.169 329.504 C 1066.112 331.657 1061.977 334.455 1059.073 336.809 C 1057.337 338.216 1054.826 339.962 1053.526 341.780 C 1052.795 342.802 1052.115 344.380 1051.798 345.597 C 1051.470 346.856 1051.310 348.624 1051.438 349.919 C 1051.554 351.104 1051.937 352.698 1052.518 353.737 C 1053.198 354.951 1054.589 356.268 1055.688 357.122 C 1057.438 358.483 1060.243 359.576 1062.214 360.590 C 1070.727 364.968 1082.243 370.475 1090.837 374.690 M 1086.709 346.612 C 1086.709 346.612 1086.709 346.612 1086.709 346.612 Z" clip-path="url(#ad58f391-c8ab-4786-84dd-6c9aa1041d8a)"/>
<path fill="none" stroke="#67370d" stroke-width="10" stroke-opacity="0.000000" stroke-linecap="round" stroke-linejoin="round" d="M 1114.477 386.233 C 1114.477 386.233 1114.477 386.233 1114.477 386.233 C 1107.385 382.770 1097.923 378.165 1090.837 374.690 C 1082.243 370.475 1070.727 364.968 1062.214 360.590 C 1060.243 359.576 1057.438 358.483 1055.688 357.122 C 1054.589 356.268 1053.198 354.951 1052.518 353.737 C 1051.937 352.698 1051.554 351.104 1051.438 349.919 C 1051.310 348.624 1051.470 346.856 1051.798 345.597 C 1052.115 344.380 1052.795 342.802 1053.526 341.780 C 1054.826 339.962 1057.337 338.216 1059.073 336.809 C 1061.977 334.455 1066.112 331.657 1069.169 329.504 C 1083.151 319.654 1102.224 307.141 1116.308 297.437 C 1121.283 294.009 1127.839 289.325 1132.836 285.929 C 1133.873 285.225 1135.196 284.183 1136.312 283.612 C 1137.435 283.039 1139.012 282.382 1140.251 282.145 C 1141.708 281.867 1143.755 281.710 1145.194 282.068 C 1147.057 282.532 1149.397 283.877 1150.755 285.234 C 1152.003 286.482 1153.212 288.633 1153.690 290.332 C 1154.167 292.028 1154.124 294.463 1153.844 296.202 C 1153.642 297.461 1153.080 299.107 1152.454 300.218 C 1151.881 301.235 1150.844 302.437 1149.976 303.219 C 1148.451 304.594 1145.924 305.777 1144.211 306.910 C 1126.722 318.467 1103.959 334.702 1086.709 346.612 C 1086.709 346.612 1086.709 346.612 1086.709 346.612 C 1094.082 350.278 1103.889 355.214 1111.286 358.831 C 1116.209 361.237 1122.834 364.316 1127.742 366.751 C 1131.199 368.466 1135.819 370.735 1139.200 372.595 C 1140.275 373.187 1141.823 373.833 1142.732 374.657 C 1143.719 375.553 1144.784 377.048 1145.320 378.269 C 1145.766 379.284 1146.024 380.775 1146.102 381.880 C 1146.232 383.725 1146.214 386.290 1145.561 388.020 C 1144.944 389.652 1143.487 391.620 1142.130 392.715 C 1140.896 393.710 1138.860 394.534 1137.314 394.882 C 1136.028 395.172 1134.221 395.221 1132.920 395.002 C 1131.827 394.819 1130.475 394.156 1129.455 393.722 C 1124.831 391.758 1114.478 386.234 1114.477 386.233 " clip-path="url(#ad58f391-c8ab-4786-84dd-6c9aa1041d8a)"/>
<path fill="#67370d" fill-rule="evenodd" fill-opacity="0.000000" stroke="#67370d" stroke-width="10" stroke-opacity="0.000000" stroke-linecap="round" stroke-linejoin="round" d="M 923.246 423.475 C 923.722 427.569 924.499 433.155 926.267 436.878 C 928.187 440.920 932.047 445.755 935.516 448.582 C 939.915 452.166 947.065 455.283 952.506 456.888 C 958.031 458.517 965.814 459.018 971.573 459.153 C 977.313 459.289 985.025 458.880 990.663 457.795 C 994.964 456.966 1000.673 455.382 1004.598 453.436 C 1007.906 451.795 1011.977 448.886 1014.673 446.361 C 1016.617 444.540 1018.851 441.727 1020.301 439.492 C 1022.053 436.792 1024.025 432.926 1025.067 429.881 C 1025.889 427.478 1026.454 424.109 1026.791 421.592 C 1027.163 418.807 1027.228 415.049 1027.345 412.241 C 1027.414 410.587 1027.345 408.374 1027.486 406.725 C 1027.551 405.969 1027.578 404.935 1027.832 404.220 C 1028.350 402.763 1029.569 401.015 1030.640 399.900 C 1031.546 398.956 1032.968 397.841 1034.182 397.351 C 1035.480 396.828 1037.404 396.758 1038.803 396.704 C 1040.004 396.658 1041.653 396.585 1042.800 396.942 C 1044.201 397.379 1045.892 398.513 1046.959 399.520 C 1047.885 400.394 1048.903 401.813 1049.420 402.977 C 1049.873 403.998 1050.086 405.502 1050.240 406.609 C 1050.512 408.560 1050.534 411.200 1050.533 413.170 C 1050.530 417.626 1050.480 423.607 1049.738 428.001 C 1048.982 432.481 1047.348 438.385 1045.535 442.551 C 1043.677 446.820 1040.341 452.132 1037.554 455.862 C 1035.189 459.028 1031.662 463.007 1028.671 465.590 C 1024.862 468.880 1019.234 472.684 1014.713 474.895 C 1010.207 477.099 1003.716 478.960 998.851 480.183 C 995.497 481.026 990.943 481.863 987.501 482.203 C 983.387 482.609 977.857 482.487 973.723 482.452 C 968.266 482.405 960.939 482.614 955.546 481.787 C 950.751 481.053 944.497 479.220 939.941 477.554 C 936.304 476.224 931.559 474.108 928.222 472.144 C 924.969 470.229 920.843 467.274 918.060 464.722 C 915.235 462.131 911.811 458.266 909.666 455.090 C 907.370 451.691 904.993 446.709 903.480 442.896 C 902.374 440.107 901.211 436.256 900.608 433.317 C 900.125 430.965 899.849 427.764 899.668 425.370 C 899.475 422.815 899.372 419.396 899.389 416.834 C 899.405 414.463 899.342 411.274 899.748 408.938 C 899.951 407.765 900.333 406.197 900.854 405.127 C 901.499 403.804 902.634 402.126 903.751 401.167 C 904.794 400.272 906.501 399.464 907.808 399.042 C 908.827 398.714 910.265 398.527 911.335 398.511 C 912.708 398.491 914.581 398.630 915.874 399.090 C 916.996 399.489 918.361 400.382 919.255 401.167 C 920.029 401.846 920.888 402.947 921.429 403.824 C 921.970 404.702 922.546 405.971 922.830 406.963 C 922.987 407.513 923.032 408.281 923.119 408.846 C 923.119 408.846 923.119 408.846 923.119 408.846 C 923.101 408.874 922.739 419.116 923.246 423.475 Z" clip-path="url(#ad58f391-c8ab-4786-84dd-6c9aa1041d8a)"/>
<path fill="#f7a846" fill-rule="evenodd" fill-opacity="0.000000" stroke="#67370d" stroke-width="10" stroke-linecap="round" stroke-linejoin="round" d="M 593.695 393.453 C 588.241 412.703 583.393 439.339 583.399 459.348 C 583.404 475.904 584.718 498.875 591.636 513.917 C 596.676 524.876 607.388 538.043 617.377 544.805 C 637.297 558.293 670.880 562.394 694.597 566.427 C 759.212 577.415 847.337 576.450 912.875 575.693 C 974.778 574.979 1057.314 569.544 1118.797 562.309 C 1152.688 558.320 1197.939 552.132 1231.025 543.776 C 1249.019 539.231 1274.078 534.211 1289.713 524.213 C 1299.692 517.831 1312.101 506.641 1317.368 496.031 C 1328.817 472.967 1327.807 436.203 1325.342 410.573 C 1322.445 380.447 1309.864 341.035 1296.393 313.933 C 1281.228 283.421 1253.012 246.677 1228.965 222.537 C 1212.719 206.227 1187.968 187.351 1167.905 176.063 C 1148.078 164.909 1119.196 154.604 1097.335 148.311 C 1070.837 140.683 1034.402 134.168 1006.942 131.660 C 979.462 129.149 942.375 128.504 914.962 131.660 C 884.124 135.210 843.377 144.681 814.262 155.447 C 794.171 162.876 768.650 176.218 750.528 187.638 C 728.135 201.750 699.370 222.860 680.885 241.804 C 665.617 257.453 648.976 281.726 637.271 300.192 C 630.962 310.144 623.815 324.179 618.543 334.717 C 616.769 338.265 614.556 343.072 612.952 346.700 C 612.725 346.361 597.831 378.858 593.695 393.453 Z" clip-path="url(#ad58f391-c8ab-4786-84dd-6c9aa1041d8a)"/>
</g>
</g>
</svg>
